solid OpenSCAD_Model
  facet normal 0 0 -1
    outer loop
      vertex -5.5 0 -6
      vertex -5.48192 0.206667 -6
      vertex -5.43787 -0.710115 -6
    endloop
  endfacet
  facet normal 0 0 -1
    outer loop
      vertex -5.43787 -0.710115 -6
      vertex -5.48192 0.206667 -6
      vertex -5.37 0.299 -6
    endloop
  endfacet
  facet normal 0 0 -1
    outer loop
      vertex -5.43787 -0.710115 -6
      vertex -5.37 0.299 -6
      vertex -5.195 0.393 -6
    endloop
  endfacet
  facet normal 0 0 -1
    outer loop
      vertex -5.43787 -0.710115 -6
      vertex -5.195 0.393 -6
      vertex -5.004 0.45 -6
    endloop
  endfacet
  facet normal 0 0 -1
    outer loop
      vertex -5.43787 -0.710115 -6
      vertex -5.004 0.45 -6
      vertex -4.806 0.47 -6
    endloop
  endfacet
  facet normal 0 0 -1
    outer loop
      vertex -5.43787 -0.710115 -6
      vertex -4.806 0.47 -6
      vertex -2.03 0.47 -6
    endloop
  endfacet
  facet normal 0 0 -1
    outer loop
      vertex -5.43787 -0.710115 -6
      vertex -2.03 0.47 -6
      vertex -1.944 0.496 -6
    endloop
  endfacet
  facet normal 0 0 -1
    outer loop
      vertex -1.944 0.496 -6
      vertex 0.5 1 -6
      vertex -5.43787 -0.710115 -6
    endloop
  endfacet
  facet normal 0 0 -1
    outer loop
      vertex -1.856 0.543 -6
      vertex 0.5 1 -6
      vertex -1.944 0.496 -6
    endloop
  endfacet
  facet normal 0 0 -1
    outer loop
      vertex -1.779 0.606 -6
      vertex 0.5 1 -6
      vertex -1.856 0.543 -6
    endloop
  endfacet
  facet normal 0 0 -1
    outer loop
      vertex -1.717 0.683 -6
      vertex -1.48663 1 -6
      vertex 0.5 1 -6
    endloop
  endfacet
  facet normal 0 0 -1
    outer loop
      vertex -1.717 0.683 -6
      vertex 0.5 1 -6
      vertex -1.779 0.606 -6
    endloop
  endfacet
  facet normal 0 0 -1
    outer loop
      vertex -5.43787 -0.710115 -6
      vertex 0.5 1 -6
      vertex 0.5 -1 -6
    endloop
  endfacet
  facet normal 0 0 -1
    outer loop
      vertex 0.5 -1 -6
      vertex 4.38873 -1 -6
      vertex 4.19846 -1.7101 -6
    endloop
  endfacet
  facet normal 0 0 -1
    outer loop
      vertex 0.5 -1 -6
      vertex 4.19846 -1.7101 -6
      vertex -5.43787 -0.710115 -6
    endloop
  endfacet
  facet normal 0 0 -1
    outer loop
      vertex -5.43787 -0.710115 -6
      vertex 4.19846 -1.7101 -6
      vertex 3.83013 -2.5 -6
    endloop
  endfacet
  facet normal 0 0 -1
    outer loop
      vertex -5.43787 -0.710115 -6
      vertex 3.83013 -2.5 -6
      vertex 3.33022 -3.21394 -6
    endloop
  endfacet
  facet normal 0 0 -1
    outer loop
      vertex -5.43787 -0.710115 -6
      vertex 3.33022 -3.21394 -6
      vertex 2.71394 -3.83022 -6
    endloop
  endfacet
  facet normal 0 0 -1
    outer loop
      vertex -5.43787 -0.710115 -6
      vertex 2.71394 -3.83022 -6
      vertex 2 -4.33013 -6
    endloop
  endfacet
  facet normal 0 0 -1
    outer loop
      vertex -5.43787 -0.710115 -6
      vertex 2 -4.33013 -6
      vertex 1.2101 -4.69846 -6
    endloop
  endfacet
  facet normal 0 0 -1
    outer loop
      vertex -5.43787 -0.710115 -6
      vertex 1.2101 -4.69846 -6
      vertex 0.84982 -4.795 -6
    endloop
  endfacet
  facet normal 0 0 -1
    outer loop
      vertex -5.43787 -0.710115 -6
      vertex 0.84982 -4.795 -6
      vertex -0.932 -4.795 -6
    endloop
  endfacet
  facet normal 0 0 -1
    outer loop
      vertex -5.43787 -0.710115 -6
      vertex -0.932 -4.795 -6
      vertex -1.13 -4.775 -6
    endloop
  endfacet
  facet normal 0 0 -1
    outer loop
      vertex -5.43787 -0.710115 -6
      vertex -1.13 -4.775 -6
      vertex -1.321 -4.718 -6
    endloop
  endfacet
  facet normal 0 0 -1
    outer loop
      vertex -5.43787 -0.710115 -6
      vertex -1.321 -4.718 -6
      vertex -1.496 -4.624 -6
    endloop
  endfacet
  facet normal 0 0 -1
    outer loop
      vertex -5.43787 -0.710115 -6
      vertex -1.496 -4.624 -6
      vertex -1.65 -4.497 -6
    endloop
  endfacet
  facet normal -0.996195 0.0871555 0
    outer loop
      vertex -5.5 0 -6
      vertex -5.5 0 6
      vertex -5.48192 0.206667 -6
    endloop
  endfacet
  facet normal -0.996195 0.0871555 0
    outer loop
      vertex -5.48192 0.206667 -6
      vertex -5.5 0 6
      vertex -5.48192 0.206667 6
    endloop
  endfacet
  facet normal -0.996195 -0.0871555 0
    outer loop
      vertex -5.5 0 -6
      vertex -5.43787 -0.710115 -6
      vertex -5.5 0 6
    endloop
  endfacet
  facet normal -0.996195 -0.0871555 0
    outer loop
      vertex -5.5 0 6
      vertex -5.43787 -0.710115 -6
      vertex -5.43787 -0.710115 6
    endloop
  endfacet
  facet normal -0.707015 -0.707199 0
    outer loop
      vertex -1.65 -4.497 -6
      vertex -1.65 -4.497 6
      vertex -5.43787 -0.710115 6
    endloop
  endfacet
  facet normal -0.707015 -0.707199 0
    outer loop
      vertex -5.43787 -0.710115 -6
      vertex -1.65 -4.497 -6
      vertex -5.43787 -0.710115 6
    endloop
  endfacet
  facet normal -0.636234 -0.771496 0
    outer loop
      vertex -1.496 -4.624 -6
      vertex -1.496 -4.624 6
      vertex -1.65 -4.497 6
    endloop
  endfacet
  facet normal -0.636234 -0.771496 0
    outer loop
      vertex -1.65 -4.497 -6
      vertex -1.496 -4.624 -6
      vertex -1.65 -4.497 6
    endloop
  endfacet
  facet normal -0.473199 -0.880956 0
    outer loop
      vertex -1.321 -4.718 -6
      vertex -1.321 -4.718 6
      vertex -1.496 -4.624 6
    endloop
  endfacet
  facet normal -0.473199 -0.880956 0
    outer loop
      vertex -1.496 -4.624 -6
      vertex -1.321 -4.718 -6
      vertex -1.496 -4.624 6
    endloop
  endfacet
  facet normal -0.285967 -0.95824 0
    outer loop
      vertex -1.13 -4.775 -6
      vertex -1.13 -4.775 6
      vertex -1.321 -4.718 6
    endloop
  endfacet
  facet normal -0.285967 -0.95824 0
    outer loop
      vertex -1.321 -4.718 -6
      vertex -1.13 -4.775 -6
      vertex -1.321 -4.718 6
    endloop
  endfacet
  facet normal -0.100499 -0.994937 0
    outer loop
      vertex -0.932 -4.795 -6
      vertex -0.932 -4.795 6
      vertex -1.13 -4.775 6
    endloop
  endfacet
  facet normal -0.100499 -0.994937 0
    outer loop
      vertex -1.13 -4.775 -6
      vertex -0.932 -4.795 -6
      vertex -1.13 -4.775 6
    endloop
  endfacet
  facet normal 0 -1 0
    outer loop
      vertex 0.84982 -4.795 -6
      vertex 0.84982 -4.795 6
      vertex -0.932 -4.795 6
    endloop
  endfacet
  facet normal 0 -1 0
    outer loop
      vertex -0.932 -4.795 -6
      vertex 0.84982 -4.795 -6
      vertex -0.932 -4.795 6
    endloop
  endfacet
  facet normal 0.258819 -0.965926 0
    outer loop
      vertex 0.84982 -4.795 6
      vertex 0.84982 -4.795 -6
      vertex 1.2101 -4.69846 -6
    endloop
  endfacet
  facet normal 0.258819 -0.965926 0
    outer loop
      vertex 1.2101 -4.69846 6
      vertex 0.84982 -4.795 6
      vertex 1.2101 -4.69846 -6
    endloop
  endfacet
  facet normal 0.422618 -0.906308 0
    outer loop
      vertex 1.2101 -4.69846 6
      vertex 1.2101 -4.69846 -6
      vertex 2 -4.33013 -6
    endloop
  endfacet
  facet normal 0.422618 -0.906308 0
    outer loop
      vertex 2 -4.33013 6
      vertex 1.2101 -4.69846 6
      vertex 2 -4.33013 -6
    endloop
  endfacet
  facet normal 0.573577 -0.819152 0
    outer loop
      vertex 2 -4.33013 6
      vertex 2 -4.33013 -6
      vertex 2.71394 -3.83022 -6
    endloop
  endfacet
  facet normal 0.573577 -0.819152 0
    outer loop
      vertex 2.71394 -3.83022 6
      vertex 2 -4.33013 6
      vertex 2.71394 -3.83022 -6
    endloop
  endfacet
  facet normal 0.707107 -0.707107 0
    outer loop
      vertex 2.71394 -3.83022 6
      vertex 2.71394 -3.83022 -6
      vertex 3.33022 -3.21394 -6
    endloop
  endfacet
  facet normal 0.707107 -0.707107 0
    outer loop
      vertex 3.33022 -3.21394 6
      vertex 2.71394 -3.83022 6
      vertex 3.33022 -3.21394 -6
    endloop
  endfacet
  facet normal 0.819152 -0.573577 0
    outer loop
      vertex 3.33022 -3.21394 6
      vertex 3.33022 -3.21394 -6
      vertex 3.83013 -2.5 -6
    endloop
  endfacet
  facet normal 0.819152 -0.573577 0
    outer loop
      vertex 3.83013 -2.5 6
      vertex 3.33022 -3.21394 6
      vertex 3.83013 -2.5 -6
    endloop
  endfacet
  facet normal 0.906308 -0.422618 0
    outer loop
      vertex 3.83013 -2.5 6
      vertex 3.83013 -2.5 -6
      vertex 4.19846 -1.7101 -6
    endloop
  endfacet
  facet normal 0.906308 -0.422618 0
    outer loop
      vertex 4.19846 -1.7101 6
      vertex 3.83013 -2.5 6
      vertex 4.19846 -1.7101 -6
    endloop
  endfacet
  facet normal 0.965926 -0.258819 0
    outer loop
      vertex 4.19846 -1.7101 6
      vertex 4.19846 -1.7101 -6
      vertex 4.38873 -1 -6
    endloop
  endfacet
  facet normal 0.965926 -0.258819 0
    outer loop
      vertex 4.38873 -1 6
      vertex 4.19846 -1.7101 6
      vertex 4.38873 -1 -6
    endloop
  endfacet
  facet normal 0 -1 0
    outer loop
      vertex 0.5 -1 -6
      vertex 0.5 -1 -6.005
      vertex 4.5 -1 -6.005
    endloop
  endfacet
  facet normal 0 -1 0
    outer loop
      vertex 4.38873 -1 -6
      vertex 0.5 -1 -6
      vertex 4.5 -1 -6.005
    endloop
  endfacet
  facet normal 0 -1 0
    outer loop
      vertex 0.5 -1 6.005
      vertex 0.5 -1 6
      vertex 4.5 -1 6.005
    endloop
  endfacet
  facet normal 0 -1 0
    outer loop
      vertex 0.5 -1 6
      vertex 4.38873 -1 6
      vertex 4.5 -1 6.005
    endloop
  endfacet
  facet normal 0 -1 0
    outer loop
      vertex 4.5 -1 6.005
      vertex 4.38873 -1 -6
      vertex 4.5 -1 -6.005
    endloop
  endfacet
  facet normal 0 -1 0
    outer loop
      vertex 4.38873 -1 6
      vertex 4.38873 -1 -6
      vertex 4.5 -1 6.005
    endloop
  endfacet
  facet normal -1 0 0
    outer loop
      vertex 0.5 -1 -6.005
      vertex 0.5 -1 -6
      vertex 0.5 1 -6.005
    endloop
  endfacet
  facet normal -1 0 0
    outer loop
      vertex 0.5 1 -6.005
      vertex 0.5 -1 -6
      vertex 0.5 1 -6
    endloop
  endfacet
  facet normal 0 -1 0
    outer loop
      vertex -1.48663 1 -6
      vertex -1.48663 1 -6.005
      vertex 0.5 1 -6.005
    endloop
  endfacet
  facet normal 0 -1 0
    outer loop
      vertex 0.5 1 -6
      vertex -1.48663 1 -6
      vertex 0.5 1 -6.005
    endloop
  endfacet
  facet normal -0.808946 0.587883 0
    outer loop
      vertex -1.48663 1 6
      vertex -1.48663 1 6.005
      vertex -1.475 1.016 6.005
    endloop
  endfacet
  facet normal -0.808946 0.587883 0
    outer loop
      vertex -1.48663 1 6
      vertex -1.475 1.016 6.005
      vertex -1.475 1.016 -6.005
    endloop
  endfacet
  facet normal -0.808946 0.587883 0
    outer loop
      vertex -1.48663 1 6
      vertex -1.475 1.016 -6.005
      vertex -1.717 0.683 6
    endloop
  endfacet
  facet normal -0.808946 0.587883 0
    outer loop
      vertex -1.475 1.016 -6.005
      vertex -1.48663 1 -6.005
      vertex -1.48663 1 -6
    endloop
  endfacet
  facet normal -0.808946 0.587883 0
    outer loop
      vertex -1.475 1.016 -6.005
      vertex -1.48663 1 -6
      vertex -1.717 0.683 6
    endloop
  endfacet
  facet normal -0.808946 0.587883 0
    outer loop
      vertex -1.717 0.683 -6
      vertex -1.717 0.683 6
      vertex -1.48663 1 -6
    endloop
  endfacet
  facet normal -0.778891 0.627159 0
    outer loop
      vertex -1.717 0.683 6
      vertex -1.717 0.683 -6
      vertex -1.779 0.606 6
    endloop
  endfacet
  facet normal -0.778891 0.627159 0
    outer loop
      vertex -1.779 0.606 6
      vertex -1.717 0.683 -6
      vertex -1.779 0.606 -6
    endloop
  endfacet
  facet normal -0.633238 0.773957 0
    outer loop
      vertex -1.779 0.606 6
      vertex -1.779 0.606 -6
      vertex -1.856 0.543 6
    endloop
  endfacet
  facet normal -0.633238 0.773957 0
    outer loop
      vertex -1.856 0.543 6
      vertex -1.779 0.606 -6
      vertex -1.856 0.543 -6
    endloop
  endfacet
  facet normal -0.471108 0.882075 0
    outer loop
      vertex -1.856 0.543 6
      vertex -1.856 0.543 -6
      vertex -1.944 0.496 6
    endloop
  endfacet
  facet normal -0.471108 0.882075 0
    outer loop
      vertex -1.944 0.496 6
      vertex -1.856 0.543 -6
      vertex -1.944 0.496 -6
    endloop
  endfacet
  facet normal -0.28939 0.957211 0
    outer loop
      vertex -1.944 0.496 6
      vertex -1.944 0.496 -6
      vertex -2.03 0.47 6
    endloop
  endfacet
  facet normal -0.28939 0.957211 0
    outer loop
      vertex -2.03 0.47 6
      vertex -1.944 0.496 -6
      vertex -2.03 0.47 -6
    endloop
  endfacet
  facet normal 0 1 0
    outer loop
      vertex -2.03 0.47 6
      vertex -2.03 0.47 -6
      vertex -4.806 0.47 6
    endloop
  endfacet
  facet normal 0 1 0
    outer loop
      vertex -4.806 0.47 6
      vertex -2.03 0.47 -6
      vertex -4.806 0.47 -6
    endloop
  endfacet
  facet normal -0.100499 0.994937 0
    outer loop
      vertex -4.806 0.47 6
      vertex -4.806 0.47 -6
      vertex -5.004 0.45 6
    endloop
  endfacet
  facet normal -0.100499 0.994937 0
    outer loop
      vertex -5.004 0.45 6
      vertex -4.806 0.47 -6
      vertex -5.004 0.45 -6
    endloop
  endfacet
  facet normal -0.285967 0.95824 0
    outer loop
      vertex -5.004 0.45 6
      vertex -5.004 0.45 -6
      vertex -5.195 0.393 6
    endloop
  endfacet
  facet normal -0.285967 0.95824 0
    outer loop
      vertex -5.195 0.393 6
      vertex -5.004 0.45 -6
      vertex -5.195 0.393 -6
    endloop
  endfacet
  facet normal -0.473199 0.880956 0
    outer loop
      vertex -5.195 0.393 6
      vertex -5.195 0.393 -6
      vertex -5.37 0.299 6
    endloop
  endfacet
  facet normal -0.473199 0.880956 0
    outer loop
      vertex -5.37 0.299 6
      vertex -5.195 0.393 -6
      vertex -5.37 0.299 -6
    endloop
  endfacet
  facet normal -0.636383 0.771373 0
    outer loop
      vertex -5.37 0.299 6
      vertex -5.37 0.299 -6
      vertex -5.48192 0.206667 6
    endloop
  endfacet
  facet normal -0.636383 0.771373 0
    outer loop
      vertex -5.48192 0.206667 6
      vertex -5.37 0.299 -6
      vertex -5.48192 0.206667 -6
    endloop
  endfacet
  facet normal 0 0 1
    outer loop
      vertex -5.48192 0.206667 6
      vertex -5.5 0 6
      vertex -5.43787 -0.710115 6
    endloop
  endfacet
  facet normal 0 0 1
    outer loop
      vertex -1.496 -4.624 6
      vertex -5.48192 0.206667 6
      vertex -1.65 -4.497 6
    endloop
  endfacet
  facet normal 0 0 1
    outer loop
      vertex -1.65 -4.497 6
      vertex -5.48192 0.206667 6
      vertex -5.43787 -0.710115 6
    endloop
  endfacet
  facet normal 0 0 1
    outer loop
      vertex -1.321 -4.718 6
      vertex -5.48192 0.206667 6
      vertex -1.496 -4.624 6
    endloop
  endfacet
  facet normal 0 0 1
    outer loop
      vertex -1.13 -4.775 6
      vertex -5.48192 0.206667 6
      vertex -1.321 -4.718 6
    endloop
  endfacet
  facet normal 0 0 1
    outer loop
      vertex -0.932 -4.795 6
      vertex -5.48192 0.206667 6
      vertex -1.13 -4.775 6
    endloop
  endfacet
  facet normal 0 0 1
    outer loop
      vertex 0.84982 -4.795 6
      vertex -5.48192 0.206667 6
      vertex -0.932 -4.795 6
    endloop
  endfacet
  facet normal 0 0 1
    outer loop
      vertex 1.2101 -4.69846 6
      vertex -5.48192 0.206667 6
      vertex 0.84982 -4.795 6
    endloop
  endfacet
  facet normal 0 0 1
    outer loop
      vertex 2 -4.33013 6
      vertex -5.48192 0.206667 6
      vertex 1.2101 -4.69846 6
    endloop
  endfacet
  facet normal 0 0 1
    outer loop
      vertex 2.71394 -3.83022 6
      vertex -5.48192 0.206667 6
      vertex 2 -4.33013 6
    endloop
  endfacet
  facet normal 0 0 1
    outer loop
      vertex 3.33022 -3.21394 6
      vertex -5.48192 0.206667 6
      vertex 2.71394 -3.83022 6
    endloop
  endfacet
  facet normal 0 0 1
    outer loop
      vertex 3.83013 -2.5 6
      vertex -5.48192 0.206667 6
      vertex 3.33022 -3.21394 6
    endloop
  endfacet
  facet normal 0 0 1
    outer loop
      vertex 0.5 -1 6
      vertex -5.48192 0.206667 6
      vertex 3.83013 -2.5 6
    endloop
  endfacet
  facet normal 0 0 1
    outer loop
      vertex 0.5 -1 6
      vertex -2.03 0.47 6
      vertex -5.48192 0.206667 6
    endloop
  endfacet
  facet normal 0 0 1
    outer loop
      vertex -2.03 0.47 6
      vertex -4.806 0.47 6
      vertex -5.48192 0.206667 6
    endloop
  endfacet
  facet normal 0 0 1
    outer loop
      vertex 4.19846 -1.7101 6
      vertex 0.5 -1 6
      vertex 3.83013 -2.5 6
    endloop
  endfacet
  facet normal 0 0 1
    outer loop
      vertex -1.48663 1 6
      vertex -1.717 0.683 6
      vertex 0.5 1 6
    endloop
  endfacet
  facet normal 0 0 1
    outer loop
      vertex -5.004 0.45 6
      vertex -5.48192 0.206667 6
      vertex -4.806 0.47 6
    endloop
  endfacet
  facet normal 0 0 1
    outer loop
      vertex -5.195 0.393 6
      vertex -5.48192 0.206667 6
      vertex -5.004 0.45 6
    endloop
  endfacet
  facet normal 0 0 1
    outer loop
      vertex -5.37 0.299 6
      vertex -5.48192 0.206667 6
      vertex -5.195 0.393 6
    endloop
  endfacet
  facet normal 0 0 1
    outer loop
      vertex 4.38873 -1 6
      vertex 0.5 -1 6
      vertex 4.19846 -1.7101 6
    endloop
  endfacet
  facet normal 0 0 1
    outer loop
      vertex 0.5 -1 6
      vertex -1.944 0.496 6
      vertex -2.03 0.47 6
    endloop
  endfacet
  facet normal 0 0 1
    outer loop
      vertex 0.5 -1 6
      vertex -1.856 0.543 6
      vertex -1.944 0.496 6
    endloop
  endfacet
  facet normal 0 0 1
    outer loop
      vertex 0.5 -1 6
      vertex -1.779 0.606 6
      vertex -1.856 0.543 6
    endloop
  endfacet
  facet normal 0 0 1
    outer loop
      vertex 0.5 -1 6
      vertex -1.717 0.683 6
      vertex -1.779 0.606 6
    endloop
  endfacet
  facet normal 0 0 1
    outer loop
      vertex 0.5 -1 6
      vertex 0.5 1 6
      vertex -1.717 0.683 6
    endloop
  endfacet
  facet normal -1 0 0
    outer loop
      vertex 0.5 -1 6
      vertex 0.5 -1 6.005
      vertex 0.5 1 6
    endloop
  endfacet
  facet normal -1 0 0
    outer loop
      vertex 0.5 1 6
      vertex 0.5 -1 6.005
      vertex 0.5 1 6.005
    endloop
  endfacet
  facet normal 0 0 1
    outer loop
      vertex 4.495 0.898 6.005
      vertex 4.466 0.993 6.005
      vertex 0.5 1 6.005
    endloop
  endfacet
  facet normal 0 0 1
    outer loop
      vertex -1.475 1.016 6.005
      vertex -1.48663 1 6.005
      vertex 0.5 1 6.005
    endloop
  endfacet
  facet normal 0 0 1
    outer loop
      vertex 4.466 0.993 6.005
      vertex -1.475 1.016 6.005
      vertex 0.5 1 6.005
    endloop
  endfacet
  facet normal 0 0 1
    outer loop
      vertex 0.5 -1 6.005
      vertex 4.5 -1 6.005
      vertex 0.5 1 6.005
    endloop
  endfacet
  facet normal 0 0 1
    outer loop
      vertex 4.5 -1 6.005
      vertex 4.5 0.888638 6.005
      vertex 0.5 1 6.005
    endloop
  endfacet
  facet normal 0 0 1
    outer loop
      vertex 4.5 0.888638 6.005
      vertex 4.495 0.898 6.005
      vertex 0.5 1 6.005
    endloop
  endfacet
  facet normal 0 0 1
    outer loop
      vertex 4.455 1.092 6.005
      vertex 4.455 2.26566 6.005
      vertex -1.475 1.016 6.005
    endloop
  endfacet
  facet normal 0 0 1
    outer loop
      vertex 4.466 0.993 6.005
      vertex 4.455 1.092 6.005
      vertex -1.475 1.016 6.005
    endloop
  endfacet
  facet normal 0 0 1
    outer loop
      vertex 4.455 2.26566 6.005
      vertex -1.388 2.26566 6.005
      vertex -1.388 1.298 6.005
    endloop
  endfacet
  facet normal 0 0 1
    outer loop
      vertex 4.455 2.26566 6.005
      vertex -1.388 1.298 6.005
      vertex -1.399 1.199 6.005
    endloop
  endfacet
  facet normal 0 0 1
    outer loop
      vertex 4.455 2.26566 6.005
      vertex -1.428 1.104 6.005
      vertex -1.475 1.016 6.005
    endloop
  endfacet
  facet normal 0 0 1
    outer loop
      vertex 4.455 2.26566 6.005
      vertex -1.399 1.199 6.005
      vertex -1.428 1.104 6.005
    endloop
  endfacet
  facet normal 1 0 0
    outer loop
      vertex 4.5 -1 6.005
      vertex 4.5 -1 -6.005
      vertex 4.5 0.888638 -6.005
    endloop
  endfacet
  facet normal 1 0 0
    outer loop
      vertex 4.5 0.888638 6.005
      vertex 4.5 -1 6.005
      vertex 4.5 0.888638 -6.005
    endloop
  endfacet
  facet normal 0 0 -1
    outer loop
      vertex -1.48663 1 -6.005
      vertex -1.475 1.016 -6.005
      vertex 0.5 1 -6.005
    endloop
  endfacet
  facet normal 0 0 -1
    outer loop
      vertex 0.5 1 -6.005
      vertex -1.475 1.016 -6.005
      vertex -1.428 1.104 -6.005
    endloop
  endfacet
  facet normal 0 0 -1
    outer loop
      vertex -1.428 1.104 -6.005
      vertex -1.399 1.199 -6.005
      vertex 0.5 1 -6.005
    endloop
  endfacet
  facet normal 0 0 -1
    outer loop
      vertex -1.399 1.199 -6.005
      vertex -1.388 1.298 -6.005
      vertex 0.5 1 -6.005
    endloop
  endfacet
  facet normal 0 0 -1
    outer loop
      vertex -1.388 1.298 -6.005
      vertex -1.388 2.26566 -6.005
      vertex 0.5 1 -6.005
    endloop
  endfacet
  facet normal 0 0 -1
    outer loop
      vertex 0.5 1 -6.005
      vertex -1.388 2.26566 -6.005
      vertex 4.455 2.26566 -6.005
    endloop
  endfacet
  facet normal 0 0 -1
    outer loop
      vertex 0.5 1 -6.005
      vertex 4.455 2.26566 -6.005
      vertex 4.455 1.092 -6.005
    endloop
  endfacet
  facet normal 0 0 -1
    outer loop
      vertex 0.5 1 -6.005
      vertex 4.455 1.092 -6.005
      vertex 4.466 0.993 -6.005
    endloop
  endfacet
  facet normal 0 0 -1
    outer loop
      vertex 0.5 1 -6.005
      vertex 4.466 0.993 -6.005
      vertex 4.495 0.898 -6.005
    endloop
  endfacet
  facet normal 0 0 -1
    outer loop
      vertex 0.5 1 -6.005
      vertex 4.495 0.898 -6.005
      vertex 4.5 0.888638 -6.005
    endloop
  endfacet
  facet normal 0 0 -1
    outer loop
      vertex 0.5 1 -6.005
      vertex 4.5 0.888638 -6.005
      vertex 4.5 -1 -6.005
    endloop
  endfacet
  facet normal 0 0 -1
    outer loop
      vertex 0.5 1 -6.005
      vertex 4.5 -1 -6.005
      vertex 0.5 -1 -6.005
    endloop
  endfacet
  facet normal -0.882075 0.471108 0
    outer loop
      vertex -1.428 1.104 6.005
      vertex -1.428 1.104 -6.005
      vertex -1.475 1.016 6.005
    endloop
  endfacet
  facet normal -0.882075 0.471108 0
    outer loop
      vertex -1.475 1.016 6.005
      vertex -1.428 1.104 -6.005
      vertex -1.475 1.016 -6.005
    endloop
  endfacet
  facet normal 0 -1 0
    outer loop
      vertex -1.48663 1 6.005
      vertex -1.48663 1 6
      vertex 0.5 1 6
    endloop
  endfacet
  facet normal 0 -1 0
    outer loop
      vertex 0.5 1 6.005
      vertex -1.48663 1 6.005
      vertex 0.5 1 6
    endloop
  endfacet
  facet normal -0.95643 0.291963 0
    outer loop
      vertex -1.399 1.199 6.005
      vertex -1.399 1.199 -6.005
      vertex -1.428 1.104 6.005
    endloop
  endfacet
  facet normal -0.95643 0.291963 0
    outer loop
      vertex -1.428 1.104 6.005
      vertex -1.399 1.199 -6.005
      vertex -1.428 1.104 -6.005
    endloop
  endfacet
  facet normal -0.993884 0.110432 0
    outer loop
      vertex -1.388 1.298 6.005
      vertex -1.388 1.298 -6.005
      vertex -1.399 1.199 6.005
    endloop
  endfacet
  facet normal -0.993884 0.110432 0
    outer loop
      vertex -1.399 1.199 6.005
      vertex -1.388 1.298 -6.005
      vertex -1.399 1.199 -6.005
    endloop
  endfacet
  facet normal -1 0 0
    outer loop
      vertex -1.388 2.26566 6.005
      vertex -1.388 2.27066 6
      vertex -1.388 1.298 6.005
    endloop
  endfacet
  facet normal -1 0 0
    outer loop
      vertex -1.388 2.492 -6
      vertex -1.388 2.27066 6
      vertex -1.388 2.492 6
    endloop
  endfacet
  facet normal -1 0 0
    outer loop
      vertex -1.388 1.298 6.005
      vertex -1.388 2.27066 6
      vertex -1.388 2.492 -6
    endloop
  endfacet
  facet normal -1 0 0
    outer loop
      vertex -1.388 1.298 6.005
      vertex -1.388 2.492 -6
      vertex -1.388 2.27066 -6
    endloop
  endfacet
  facet normal -1 0 0
    outer loop
      vertex -1.388 1.298 6.005
      vertex -1.388 2.27066 -6
      vertex -1.388 2.26566 -6.005
    endloop
  endfacet
  facet normal -1 0 0
    outer loop
      vertex -1.388 1.298 6.005
      vertex -1.388 2.26566 -6.005
      vertex -1.388 1.298 -6.005
    endloop
  endfacet
  facet normal 0 0.707107 0.707107
    outer loop
      vertex -1.388 2.26566 6.005
      vertex 4.455 2.26566 6.005
      vertex -1.388 2.27066 6
    endloop
  endfacet
  facet normal 0 0.707107 0.707107
    outer loop
      vertex -1.388 2.27066 6
      vertex 4.455 2.26566 6.005
      vertex 4.455 2.27066 6
    endloop
  endfacet
  facet normal 1 0 0
    outer loop
      vertex 4.455 2.26566 -6.005
      vertex 4.455 2.27066 -6
      vertex 4.455 2.698 6
    endloop
  endfacet
  facet normal 1 0 0
    outer loop
      vertex 4.455 2.698 6
      vertex 4.455 2.27066 -6
      vertex 4.455 2.698 -6
    endloop
  endfacet
  facet normal 1 0 0
    outer loop
      vertex 4.455 2.26566 -6.005
      vertex 4.455 2.27066 6
      vertex 4.455 2.26566 6.005
    endloop
  endfacet
  facet normal 1 0 0
    outer loop
      vertex 4.455 2.26566 -6.005
      vertex 4.455 2.698 6
      vertex 4.455 2.27066 6
    endloop
  endfacet
  facet normal 1 0 0
    outer loop
      vertex 4.455 2.26566 -6.005
      vertex 4.455 2.26566 6.005
      vertex 4.455 1.092 6.005
    endloop
  endfacet
  facet normal 1 0 0
    outer loop
      vertex 4.455 2.26566 -6.005
      vertex 4.455 1.092 6.005
      vertex 4.455 1.092 -6.005
    endloop
  endfacet
  facet normal 0.993884 0.110432 0
    outer loop
      vertex 4.455 1.092 6.005
      vertex 4.466 0.993 6.005
      vertex 4.466 0.993 -6.005
    endloop
  endfacet
  facet normal 0.993884 0.110432 0
    outer loop
      vertex 4.455 1.092 -6.005
      vertex 4.455 1.092 6.005
      vertex 4.466 0.993 -6.005
    endloop
  endfacet
  facet normal 0.95643 0.291963 0
    outer loop
      vertex 4.466 0.993 6.005
      vertex 4.495 0.898 6.005
      vertex 4.495 0.898 -6.005
    endloop
  endfacet
  facet normal 0.95643 0.291963 0
    outer loop
      vertex 4.466 0.993 -6.005
      vertex 4.466 0.993 6.005
      vertex 4.495 0.898 -6.005
    endloop
  endfacet
  facet normal 0.882075 0.471108 0
    outer loop
      vertex 4.495 0.898 6.005
      vertex 4.5 0.888638 6.005
      vertex 4.5 0.888638 -6.005
    endloop
  endfacet
  facet normal 0.882075 0.471108 0
    outer loop
      vertex 4.495 0.898 -6.005
      vertex 4.495 0.898 6.005
      vertex 4.5 0.888638 -6.005
    endloop
  endfacet
  facet normal 3.14018e-016 0.707107 -0.707107
    outer loop
      vertex -1.388 2.26566 -6.005
      vertex -1.388 2.27066 -6
      vertex 4.455 2.26566 -6.005
    endloop
  endfacet
  facet normal 3.14018e-016 0.707107 -0.707107
    outer loop
      vertex 4.455 2.26566 -6.005
      vertex -1.388 2.27066 -6
      vertex 4.455 2.27066 -6
    endloop
  endfacet
  facet normal 0 0 -1
    outer loop
      vertex -1.5 2.8084 -6
      vertex -1.5 11 -6
      vertex -1.475 2.774 -6
    endloop
  endfacet
  facet normal 0 0 -1
    outer loop
      vertex -1.475 2.774 -6
      vertex -1.5 11 -6
      vertex 18.2397 11 -6
    endloop
  endfacet
  facet normal 0 0 -1
    outer loop
      vertex 14.094 2.769 -6
      vertex 18.2397 11 -6
      vertex 23.2796 2.27066 -6
    endloop
  endfacet
  facet normal 0 0 -1
    outer loop
      vertex 14.336 2.436 -6
      vertex 23.2796 2.27066 -6
      vertex 14.4239 2.27066 -6
    endloop
  endfacet
  facet normal 0 0 -1
    outer loop
      vertex 13.936 2.961 -6
      vertex 18.2397 11 -6
      vertex 14.094 2.769 -6
    endloop
  endfacet
  facet normal 0 0 -1
    outer loop
      vertex 5.256 3.323 -6
      vertex 6.053 3.333 -6
      vertex 6.022 3.323 -6
    endloop
  endfacet
  facet normal 0 0 -1
    outer loop
      vertex 13.744 3.119 -6
      vertex 18.2397 11 -6
      vertex 13.936 2.961 -6
    endloop
  endfacet
  facet normal 0 0 -1
    outer loop
      vertex 13.524 3.236 -6
      vertex 18.2397 11 -6
      vertex 13.744 3.119 -6
    endloop
  endfacet
  facet normal 0 0 -1
    outer loop
      vertex 13.286 3.309 -6
      vertex 18.2397 11 -6
      vertex 13.524 3.236 -6
    endloop
  endfacet
  facet normal 0 0 -1
    outer loop
      vertex 13.038 3.333 -6
      vertex 18.2397 11 -6
      vertex 13.286 3.309 -6
    endloop
  endfacet
  facet normal 0 0 -1
    outer loop
      vertex 6.053 3.333 -6
      vertex 18.2397 11 -6
      vertex 13.038 3.333 -6
    endloop
  endfacet
  facet normal 0 0 -1
    outer loop
      vertex 5.256 3.323 -6
      vertex 18.2397 11 -6
      vertex 6.053 3.333 -6
    endloop
  endfacet
  facet normal 0 0 -1
    outer loop
      vertex -1.475 2.774 -6
      vertex 18.2397 11 -6
      vertex 5.256 3.323 -6
    endloop
  endfacet
  facet normal 0 0 -1
    outer loop
      vertex 4.769 3.167 -6
      vertex -1.475 2.774 -6
      vertex 5.16 3.294 -6
    endloop
  endfacet
  facet normal 0 0 -1
    outer loop
      vertex -1.475 2.774 -6
      vertex 5.256 3.323 -6
      vertex 5.16 3.294 -6
    endloop
  endfacet
  facet normal 0 0 -1
    outer loop
      vertex 4.542 2.98 -6
      vertex -1.475 2.774 -6
      vertex 4.604 3.057 -6
    endloop
  endfacet
  facet normal 0 0 -1
    outer loop
      vertex -1.475 2.774 -6
      vertex 4.769 3.167 -6
      vertex 4.681 3.12 -6
    endloop
  endfacet
  facet normal 0 0 -1
    outer loop
      vertex -1.475 2.774 -6
      vertex 4.681 3.12 -6
      vertex 4.604 3.057 -6
    endloop
  endfacet
  facet normal 0 0 -1
    outer loop
      vertex 4.495 2.892 -6
      vertex -1.475 2.774 -6
      vertex 4.542 2.98 -6
    endloop
  endfacet
  facet normal 0 0 -1
    outer loop
      vertex 4.466 2.797 -6
      vertex -1.475 2.774 -6
      vertex 4.495 2.892 -6
    endloop
  endfacet
  facet normal 0 0 -1
    outer loop
      vertex 4.455 2.698 -6
      vertex -1.475 2.774 -6
      vertex 4.466 2.797 -6
    endloop
  endfacet
  facet normal 0 0 -1
    outer loop
      vertex 4.455 2.27066 -6
      vertex -1.475 2.774 -6
      vertex 4.455 2.698 -6
    endloop
  endfacet
  facet normal 0 0 -1
    outer loop
      vertex -1.388 2.492 -6
      vertex 4.455 2.27066 -6
      vertex -1.388 2.27066 -6
    endloop
  endfacet
  facet normal 0 0 -1
    outer loop
      vertex -1.399 2.591 -6
      vertex 4.455 2.27066 -6
      vertex -1.388 2.492 -6
    endloop
  endfacet
  facet normal 0 0 -1
    outer loop
      vertex -1.428 2.686 -6
      vertex 4.455 2.27066 -6
      vertex -1.399 2.591 -6
    endloop
  endfacet
  facet normal 0 0 -1
    outer loop
      vertex -1.475 2.774 -6
      vertex 4.455 2.27066 -6
      vertex -1.428 2.686 -6
    endloop
  endfacet
  facet normal 0 0 -1
    outer loop
      vertex 14.094 2.769 -6
      vertex 23.2796 2.27066 -6
      vertex 14.336 2.436 -6
    endloop
  endfacet
  facet normal -0.993884 -0.110432 0
    outer loop
      vertex -1.388 2.492 6
      vertex -1.399 2.591 6
      vertex -1.388 2.492 -6
    endloop
  endfacet
  facet normal -0.993884 -0.110432 0
    outer loop
      vertex -1.388 2.492 -6
      vertex -1.399 2.591 6
      vertex -1.399 2.591 -6
    endloop
  endfacet
  facet normal 0 0 1
    outer loop
      vertex -1.399 2.591 6
      vertex -1.388 2.492 6
      vertex -1.5 11 6
    endloop
  endfacet
  facet normal 0 0 1
    outer loop
      vertex -1.5 11 6
      vertex -1.5 2.8084 6
      vertex -1.475 2.774 6
    endloop
  endfacet
  facet normal 0 0 1
    outer loop
      vertex -1.388 2.492 6
      vertex 4.455 2.27066 6
      vertex -1.5 11 6
    endloop
  endfacet
  facet normal 0 0 1
    outer loop
      vertex -1.428 2.686 6
      vertex -1.5 11 6
      vertex -1.475 2.774 6
    endloop
  endfacet
  facet normal 0 0 1
    outer loop
      vertex -1.428 2.686 6
      vertex -1.399 2.591 6
      vertex -1.5 11 6
    endloop
  endfacet
  facet normal 0 0 1
    outer loop
      vertex 4.455 2.698 6
      vertex 4.466 2.797 6
      vertex -1.5 11 6
    endloop
  endfacet
  facet normal 0 0 1
    outer loop
      vertex -1.388 2.27066 6
      vertex 4.455 2.27066 6
      vertex -1.388 2.492 6
    endloop
  endfacet
  facet normal 0 0 1
    outer loop
      vertex 4.455 2.27066 6
      vertex 4.455 2.698 6
      vertex -1.5 11 6
    endloop
  endfacet
  facet normal 0 0 1
    outer loop
      vertex 4.466 2.797 6
      vertex 4.495 2.892 6
      vertex -1.5 11 6
    endloop
  endfacet
  facet normal 0 0 1
    outer loop
      vertex 4.495 2.892 6
      vertex 4.542 2.98 6
      vertex -1.5 11 6
    endloop
  endfacet
  facet normal 0 0 1
    outer loop
      vertex 4.542 2.98 6
      vertex 4.604 3.057 6
      vertex -1.5 11 6
    endloop
  endfacet
  facet normal 0 0 1
    outer loop
      vertex 4.604 3.057 6
      vertex 4.681 3.12 6
      vertex -1.5 11 6
    endloop
  endfacet
  facet normal 0 0 1
    outer loop
      vertex 4.681 3.12 6
      vertex 4.769 3.167 6
      vertex -1.5 11 6
    endloop
  endfacet
  facet normal 0 0 1
    outer loop
      vertex 4.769 3.167 6
      vertex 5.16 3.294 6
      vertex -1.5 11 6
    endloop
  endfacet
  facet normal 0 0 1
    outer loop
      vertex 5.16 3.294 6
      vertex 5.256 3.323 6
      vertex -1.5 11 6
    endloop
  endfacet
  facet normal 0 0 1
    outer loop
      vertex 5.256 3.323 6
      vertex 6.022 3.323 6
      vertex -1.5 11 6
    endloop
  endfacet
  facet normal 0 0 1
    outer loop
      vertex 6.053 3.333 6
      vertex 13.038 3.333 6
      vertex -1.5 11 6
    endloop
  endfacet
  facet normal 0 0 1
    outer loop
      vertex 13.038 3.333 6
      vertex 13.286 3.309 6
      vertex -1.5 11 6
    endloop
  endfacet
  facet normal 0 0 1
    outer loop
      vertex 6.022 3.323 6
      vertex 6.053 3.333 6
      vertex -1.5 11 6
    endloop
  endfacet
  facet normal 0 0 1
    outer loop
      vertex 13.286 3.309 6
      vertex 13.524 3.236 6
      vertex -1.5 11 6
    endloop
  endfacet
  facet normal 0 0 1
    outer loop
      vertex 13.524 3.236 6
      vertex 23.2796 2.27066 6
      vertex -1.5 11 6
    endloop
  endfacet
  facet normal 0 0 1
    outer loop
      vertex 13.744 3.119 6
      vertex 23.2796 2.27066 6
      vertex 13.524 3.236 6
    endloop
  endfacet
  facet normal 0 0 1
    outer loop
      vertex 13.936 2.961 6
      vertex 23.2796 2.27066 6
      vertex 13.744 3.119 6
    endloop
  endfacet
  facet normal 0 0 1
    outer loop
      vertex 14.094 2.769 6
      vertex 23.2796 2.27066 6
      vertex 13.936 2.961 6
    endloop
  endfacet
  facet normal 0 0 1
    outer loop
      vertex 14.336 2.436 6
      vertex 23.2796 2.27066 6
      vertex 14.094 2.769 6
    endloop
  endfacet
  facet normal 0 0 1
    outer loop
      vertex 14.4239 2.27066 6
      vertex 23.2796 2.27066 6
      vertex 14.336 2.436 6
    endloop
  endfacet
  facet normal 0 0 1
    outer loop
      vertex 23.2796 2.27066 6
      vertex 18.2397 11 6
      vertex -1.5 11 6
    endloop
  endfacet
  facet normal 0.993884 -0.110432 0
    outer loop
      vertex 4.466 2.797 -6
      vertex 4.466 2.797 6
      vertex 4.455 2.698 6
    endloop
  endfacet
  facet normal 0.993884 -0.110432 0
    outer loop
      vertex 4.455 2.698 -6
      vertex 4.466 2.797 -6
      vertex 4.455 2.698 6
    endloop
  endfacet
  facet normal -0.882075 -0.471108 0
    outer loop
      vertex -1.428 2.686 6
      vertex -1.475 2.774 6
      vertex -1.428 2.686 -6
    endloop
  endfacet
  facet normal -0.882075 -0.471108 0
    outer loop
      vertex -1.428 2.686 -6
      vertex -1.475 2.774 6
      vertex -1.475 2.774 -6
    endloop
  endfacet
  facet normal -0.808946 -0.587883 0
    outer loop
      vertex -1.475 2.774 6
      vertex -1.5 2.8084 6
      vertex -1.475 2.774 -6
    endloop
  endfacet
  facet normal -0.808946 -0.587883 0
    outer loop
      vertex -1.475 2.774 -6
      vertex -1.5 2.8084 6
      vertex -1.5 2.8084 -6
    endloop
  endfacet
  facet normal -0.95643 -0.291963 0
    outer loop
      vertex -1.399 2.591 6
      vertex -1.428 2.686 6
      vertex -1.399 2.591 -6
    endloop
  endfacet
  facet normal -0.95643 -0.291963 0
    outer loop
      vertex -1.399 2.591 -6
      vertex -1.428 2.686 6
      vertex -1.428 2.686 -6
    endloop
  endfacet
  facet normal 0.95643 -0.291963 0
    outer loop
      vertex 4.495 2.892 -6
      vertex 4.495 2.892 6
      vertex 4.466 2.797 6
    endloop
  endfacet
  facet normal 0.95643 -0.291963 0
    outer loop
      vertex 4.466 2.797 -6
      vertex 4.495 2.892 -6
      vertex 4.466 2.797 6
    endloop
  endfacet
  facet normal 0.882075 -0.471108 0
    outer loop
      vertex 4.542 2.98 -6
      vertex 4.542 2.98 6
      vertex 4.495 2.892 6
    endloop
  endfacet
  facet normal 0.882075 -0.471108 0
    outer loop
      vertex 4.495 2.892 -6
      vertex 4.542 2.98 -6
      vertex 4.495 2.892 6
    endloop
  endfacet
  facet normal 0.778891 -0.627159 0
    outer loop
      vertex 4.604 3.057 -6
      vertex 4.604 3.057 6
      vertex 4.542 2.98 6
    endloop
  endfacet
  facet normal 0.778891 -0.627159 0
    outer loop
      vertex 4.542 2.98 -6
      vertex 4.604 3.057 -6
      vertex 4.542 2.98 6
    endloop
  endfacet
  facet normal 0.633238 -0.773957 0
    outer loop
      vertex 4.681 3.12 -6
      vertex 4.681 3.12 6
      vertex 4.604 3.057 6
    endloop
  endfacet
  facet normal 0.633238 -0.773957 0
    outer loop
      vertex 4.604 3.057 -6
      vertex 4.681 3.12 -6
      vertex 4.604 3.057 6
    endloop
  endfacet
  facet normal 0.471108 -0.882075 0
    outer loop
      vertex 4.769 3.167 -6
      vertex 4.769 3.167 6
      vertex 4.681 3.12 6
    endloop
  endfacet
  facet normal 0.471108 -0.882075 0
    outer loop
      vertex 4.681 3.12 -6
      vertex 4.769 3.167 -6
      vertex 4.681 3.12 6
    endloop
  endfacet
  facet normal 0.308921 -0.951088 0
    outer loop
      vertex 5.16 3.294 -6
      vertex 5.16 3.294 6
      vertex 4.769 3.167 6
    endloop
  endfacet
  facet normal 0.308921 -0.951088 0
    outer loop
      vertex 4.769 3.167 -6
      vertex 5.16 3.294 -6
      vertex 4.769 3.167 6
    endloop
  endfacet
  facet normal 0.289177 -0.957276 0
    outer loop
      vertex 5.256 3.323 -6
      vertex 5.256 3.323 6
      vertex 5.16 3.294 6
    endloop
  endfacet
  facet normal 0.289177 -0.957276 0
    outer loop
      vertex 5.16 3.294 -6
      vertex 5.256 3.323 -6
      vertex 5.16 3.294 6
    endloop
  endfacet
  facet normal 0 -1 0
    outer loop
      vertex 6.022 3.323 -6
      vertex 6.022 3.323 6
      vertex 5.256 3.323 6
    endloop
  endfacet
  facet normal 0 -1 0
    outer loop
      vertex 5.256 3.323 -6
      vertex 6.022 3.323 -6
      vertex 5.256 3.323 6
    endloop
  endfacet
  facet normal 0.307003 -0.951709 0
    outer loop
      vertex 6.053 3.333 -6
      vertex 6.053 3.333 6
      vertex 6.022 3.323 6
    endloop
  endfacet
  facet normal 0.307003 -0.951709 0
    outer loop
      vertex 6.022 3.323 -6
      vertex 6.053 3.333 -6
      vertex 6.022 3.323 6
    endloop
  endfacet
  facet normal 0 -1 0
    outer loop
      vertex 13.038 3.333 -6
      vertex 13.038 3.333 6
      vertex 6.053 3.333 6
    endloop
  endfacet
  facet normal 0 -1 0
    outer loop
      vertex 6.053 3.333 -6
      vertex 13.038 3.333 -6
      vertex 6.053 3.333 6
    endloop
  endfacet
  facet normal -0.0963242 -0.99535 0
    outer loop
      vertex 13.286 3.309 -6
      vertex 13.286 3.309 6
      vertex 13.038 3.333 6
    endloop
  endfacet
  facet normal -0.0963242 -0.99535 0
    outer loop
      vertex 13.038 3.333 -6
      vertex 13.286 3.309 -6
      vertex 13.038 3.333 6
    endloop
  endfacet
  facet normal -0.293239 -0.956039 0
    outer loop
      vertex 13.524 3.236 -6
      vertex 13.524 3.236 6
      vertex 13.286 3.309 6
    endloop
  endfacet
  facet normal -0.293239 -0.956039 0
    outer loop
      vertex 13.286 3.309 -6
      vertex 13.524 3.236 -6
      vertex 13.286 3.309 6
    endloop
  endfacet
  facet normal -0.469546 -0.882908 0
    outer loop
      vertex 13.744 3.119 -6
      vertex 13.744 3.119 6
      vertex 13.524 3.236 6
    endloop
  endfacet
  facet normal -0.469546 -0.882908 0
    outer loop
      vertex 13.524 3.236 -6
      vertex 13.744 3.119 -6
      vertex 13.524 3.236 6
    endloop
  endfacet
  facet normal -0.635425 -0.772162 0
    outer loop
      vertex 13.936 2.961 -6
      vertex 13.936 2.961 6
      vertex 13.744 3.119 6
    endloop
  endfacet
  facet normal -0.635425 -0.772162 0
    outer loop
      vertex 13.744 3.119 -6
      vertex 13.936 2.961 -6
      vertex 13.744 3.119 6
    endloop
  endfacet
  facet normal -0.772162 -0.635425 0
    outer loop
      vertex 14.094 2.769 6
      vertex 13.936 2.961 6
      vertex 14.094 2.769 -6
    endloop
  endfacet
  facet normal -0.772162 -0.635425 0
    outer loop
      vertex 14.094 2.769 -6
      vertex 13.936 2.961 6
      vertex 13.936 2.961 -6
    endloop
  endfacet
  facet normal -0.808946 -0.587883 0
    outer loop
      vertex 14.336 2.436 6
      vertex 14.094 2.769 6
      vertex 14.336 2.436 -6
    endloop
  endfacet
  facet normal -0.808946 -0.587883 0
    outer loop
      vertex 14.336 2.436 -6
      vertex 14.094 2.769 6
      vertex 14.094 2.769 -6
    endloop
  endfacet
  facet normal -0.882908 -0.469546 0
    outer loop
      vertex 14.4266 2.26566 -6.005
      vertex 14.453 2.216 -6.005
      vertex 14.4239 2.27066 -6
    endloop
  endfacet
  facet normal -0.882908 -0.469546 0
    outer loop
      vertex 14.4239 2.27066 -6
      vertex 14.453 2.216 -6.005
      vertex 14.453 2.216 6.005
    endloop
  endfacet
  facet normal -0.882908 -0.469546 0
    outer loop
      vertex 14.4239 2.27066 -6
      vertex 14.453 2.216 6.005
      vertex 14.4266 2.26566 6.005
    endloop
  endfacet
  facet normal -0.882908 -0.469546 0
    outer loop
      vertex 14.4239 2.27066 -6
      vertex 14.4266 2.26566 6.005
      vertex 14.4239 2.27066 6
    endloop
  endfacet
  facet normal -0.882908 -0.469546 0
    outer loop
      vertex 14.4239 2.27066 -6
      vertex 14.4239 2.27066 6
      vertex 14.336 2.436 6
    endloop
  endfacet
  facet normal -0.882908 -0.469546 0
    outer loop
      vertex 14.4239 2.27066 -6
      vertex 14.336 2.436 6
      vertex 14.336 2.436 -6
    endloop
  endfacet
  facet normal 3.14018e-016 0.707107 -0.707107
    outer loop
      vertex 14.4239 2.27066 -6
      vertex 23.2796 2.27066 -6
      vertex 14.4266 2.26566 -6.005
    endloop
  endfacet
  facet normal 3.14018e-016 0.707107 -0.707107
    outer loop
      vertex 116.7 3.12836 -5.1423
      vertex 23.2796 2.27066 -6
      vertex 22.7844 3.12836 -5.1423
    endloop
  endfacet
  facet normal 3.14018e-016 0.707107 -0.707107
    outer loop
      vertex 116.7 2.26566 -6.005
      vertex 23.2796 2.27066 -6
      vertex 116.7 3.12836 -5.1423
    endloop
  endfacet
  facet normal 3.14018e-016 0.707107 -0.707107
    outer loop
      vertex 14.4266 2.26566 -6.005
      vertex 23.2796 2.27066 -6
      vertex 116.7 2.26566 -6.005
    endloop
  endfacet
  facet normal 0.866025 0.5 0
    outer loop
      vertex 22.3226 3.9282 -4
      vertex 18.2397 11 -6
      vertex 18.2397 11 6
    endloop
  endfacet
  facet normal 0.866025 0.5 0
    outer loop
      vertex 23.2796 2.27066 6
      vertex 22.7844 3.12836 5.1423
      vertex 18.2397 11 6
    endloop
  endfacet
  facet normal 0.866025 0.5 0
    outer loop
      vertex 22.7844 3.12836 5.1423
      vertex 22.3226 3.9282 4
      vertex 18.2397 11 6
    endloop
  endfacet
  facet normal 0.866025 0.5 0
    outer loop
      vertex 22.3226 3.9282 4
      vertex 21.9824 4.51754 2.73616
      vertex 18.2397 11 6
    endloop
  endfacet
  facet normal 0.866025 0.5 0
    outer loop
      vertex 21.9824 4.51754 2.73616
      vertex 21.774 4.87846 1.38919
      vertex 18.2397 11 6
    endloop
  endfacet
  facet normal 0.866025 0.5 0
    outer loop
      vertex 21.774 4.87846 1.38919
      vertex 21.7038 5 4.81922e-015
      vertex 18.2397 11 6
    endloop
  endfacet
  facet normal 0.866025 0.5 0
    outer loop
      vertex 21.7038 5 4.81922e-015
      vertex 21.774 4.87846 -1.38918
      vertex 18.2397 11 6
    endloop
  endfacet
  facet normal 0.866025 0.5 0
    outer loop
      vertex 21.774 4.87846 -1.38918
      vertex 21.9824 4.51754 -2.73616
      vertex 18.2397 11 6
    endloop
  endfacet
  facet normal 0.866025 0.5 0
    outer loop
      vertex 22.7844 3.12836 -5.1423
      vertex 18.2397 11 -6
      vertex 22.3226 3.9282 -4
    endloop
  endfacet
  facet normal 0.866025 0.5 0
    outer loop
      vertex 23.2796 2.27066 -6
      vertex 18.2397 11 -6
      vertex 22.7844 3.12836 -5.1423
    endloop
  endfacet
  facet normal 0.866025 0.5 0
    outer loop
      vertex 21.9824 4.51754 -2.73616
      vertex 22.3226 3.9282 -4
      vertex 18.2397 11 6
    endloop
  endfacet
  facet normal 0 1 0
    outer loop
      vertex -1.5 11 -6
      vertex -1.5 11 6
      vertex 18.2397 11 -6
    endloop
  endfacet
  facet normal 0 1 0
    outer loop
      vertex 18.2397 11 -6
      vertex -1.5 11 6
      vertex 18.2397 11 6
    endloop
  endfacet
  facet normal -1 0 0
    outer loop
      vertex -1.5 11 6
      vertex -1.5 11 -6
      vertex -1.5 2.8084 6
    endloop
  endfacet
  facet normal -1 0 0
    outer loop
      vertex -1.5 2.8084 6
      vertex -1.5 11 -6
      vertex -1.5 2.8084 -6
    endloop
  endfacet
  facet normal 0 0.707107 0.707107
    outer loop
      vertex 14.4239 2.27066 6
      vertex 14.4266 2.26566 6.005
      vertex 23.2796 2.27066 6
    endloop
  endfacet
  facet normal 0 0.707107 0.707107
    outer loop
      vertex 23.2796 2.27066 6
      vertex 14.4266 2.26566 6.005
      vertex 116.7 2.26566 6.005
    endloop
  endfacet
  facet normal 0 0.707107 0.707107
    outer loop
      vertex 23.2796 2.27066 6
      vertex 116.7 2.26566 6.005
      vertex 116.7 3.12836 5.1423
    endloop
  endfacet
  facet normal 0 0.707107 0.707107
    outer loop
      vertex 23.2796 2.27066 6
      vertex 116.7 3.12836 5.1423
      vertex 22.7844 3.12836 5.1423
    endloop
  endfacet
  facet normal 0 0 1
    outer loop
      vertex 14.2 -6.59589 6.005
      vertex 14.2 -8.26566 6.005
      vertex 116.7 -8.26566 6.005
    endloop
  endfacet
  facet normal 0 0 1
    outer loop
      vertex 120.7 -8.26566 6.005
      vertex 14.2 -6.59589 6.005
      vertex 116.7 -8.26566 6.005
    endloop
  endfacet
  facet normal 0 0 1
    outer loop
      vertex 116.7 -11.1174 6.005
      vertex 120.7 -11.1174 6.005
      vertex 116.7 -8.26566 6.005
    endloop
  endfacet
  facet normal 0 0 1
    outer loop
      vertex 120.7 -11.1174 6.005
      vertex 120.7 -8.26566 6.005
      vertex 116.7 -8.26566 6.005
    endloop
  endfacet
  facet normal 0 0 1
    outer loop
      vertex 120.7 -8.26566 6.005
      vertex 120.7 2.26566 6.005
      vertex 14.2 -6.59589 6.005
    endloop
  endfacet
  facet normal 0 0 1
    outer loop
      vertex 116.7 2.26566 6.005
      vertex 14.222 -6.569 6.005
      vertex 14.2 -6.59589 6.005
    endloop
  endfacet
  facet normal 0 0 1
    outer loop
      vertex 116.7 2.26566 6.005
      vertex 14.464 -6.236 6.005
      vertex 14.222 -6.569 6.005
    endloop
  endfacet
  facet normal 0 0 1
    outer loop
      vertex 120.7 2.26566 6.005
      vertex 116.7 2.26566 6.005
      vertex 14.2 -6.59589 6.005
    endloop
  endfacet
  facet normal 0 0 1
    outer loop
      vertex 120.7 2.26566 6.005
      vertex 120.7 6.005 6.005
      vertex 116.7 2.26566 6.005
    endloop
  endfacet
  facet normal 0 0 1
    outer loop
      vertex 14.54 -5.269 6.005
      vertex 14.54 -6.052 6.005
      vertex 14.55 -5.255 6.005
    endloop
  endfacet
  facet normal 0 0 1
    outer loop
      vertex 116.7 11.1174 6.005
      vertex 120.7 6.005 6.005
      vertex 120.7 11.1174 6.005
    endloop
  endfacet
  facet normal 0 0 1
    outer loop
      vertex 116.7 11.1174 6.005
      vertex 116.7 2.26566 6.005
      vertex 120.7 6.005 6.005
    endloop
  endfacet
  facet normal 0 0 1
    outer loop
      vertex 116.7 2.26566 6.005
      vertex 14.511 -6.148 6.005
      vertex 14.464 -6.236 6.005
    endloop
  endfacet
  facet normal 0 0 1
    outer loop
      vertex 116.7 2.26566 6.005
      vertex 14.54 -6.052 6.005
      vertex 14.511 -6.148 6.005
    endloop
  endfacet
  facet normal 0 0 1
    outer loop
      vertex 116.7 2.26566 6.005
      vertex 14.55 -5.255 6.005
      vertex 14.54 -6.052 6.005
    endloop
  endfacet
  facet normal 0 0 1
    outer loop
      vertex 116.7 2.26566 6.005
      vertex 14.55 1.73 6.005
      vertex 14.55 -5.255 6.005
    endloop
  endfacet
  facet normal 0 0 1
    outer loop
      vertex 116.7 2.26566 6.005
      vertex 14.526 1.978 6.005
      vertex 14.55 1.73 6.005
    endloop
  endfacet
  facet normal 0 0 1
    outer loop
      vertex 116.7 2.26566 6.005
      vertex 14.453 2.216 6.005
      vertex 14.526 1.978 6.005
    endloop
  endfacet
  facet normal 0 0 1
    outer loop
      vertex 116.7 2.26566 6.005
      vertex 14.4266 2.26566 6.005
      vertex 14.453 2.216 6.005
    endloop
  endfacet
  facet normal -0.956039 -0.293239 0
    outer loop
      vertex 14.526 1.978 6.005
      vertex 14.453 2.216 6.005
      vertex 14.526 1.978 -6.005
    endloop
  endfacet
  facet normal -0.956039 -0.293239 0
    outer loop
      vertex 14.526 1.978 -6.005
      vertex 14.453 2.216 6.005
      vertex 14.453 2.216 -6.005
    endloop
  endfacet
  facet normal 0 0 -1
    outer loop
      vertex 14.2 -8.26566 -6.005
      vertex 14.2 -6.59589 -6.005
      vertex 116.7 -8.26566 -6.005
    endloop
  endfacet
  facet normal 0 0 -1
    outer loop
      vertex 116.7 -8.26566 -6.005
      vertex 14.2 -6.59589 -6.005
      vertex 14.222 -6.569 -6.005
    endloop
  endfacet
  facet normal 0 0 -1
    outer loop
      vertex 116.7 -8.26566 -6.005
      vertex 14.222 -6.569 -6.005
      vertex 14.464 -6.236 -6.005
    endloop
  endfacet
  facet normal 0 0 -1
    outer loop
      vertex 14.464 -6.236 -6.005
      vertex 14.511 -6.148 -6.005
      vertex 116.7 -8.26566 -6.005
    endloop
  endfacet
  facet normal 0 0 -1
    outer loop
      vertex 14.511 -6.148 -6.005
      vertex 14.54 -6.052 -6.005
      vertex 116.7 -8.26566 -6.005
    endloop
  endfacet
  facet normal 0 0 -1
    outer loop
      vertex 14.54 -6.052 -6.005
      vertex 14.54 -5.269 -6.005
      vertex 116.7 -8.26566 -6.005
    endloop
  endfacet
  facet normal 0 0 -1
    outer loop
      vertex 116.7 -8.26566 -6.005
      vertex 14.54 -5.269 -6.005
      vertex 14.55 -5.255 -6.005
    endloop
  endfacet
  facet normal 0 0 -1
    outer loop
      vertex 116.7 -8.26566 -6.005
      vertex 14.55 -5.255 -6.005
      vertex 14.55 1.73 -6.005
    endloop
  endfacet
  facet normal 0 0 -1
    outer loop
      vertex 14.55 1.73 -6.005
      vertex 14.526 1.978 -6.005
      vertex 116.7 -8.26566 -6.005
    endloop
  endfacet
  facet normal 0 0 -1
    outer loop
      vertex 14.526 1.978 -6.005
      vertex 14.453 2.216 -6.005
      vertex 116.7 -8.26566 -6.005
    endloop
  endfacet
  facet normal 0 0 -1
    outer loop
      vertex 14.453 2.216 -6.005
      vertex 14.4266 2.26566 -6.005
      vertex 116.7 -8.26566 -6.005
    endloop
  endfacet
  facet normal 0 0 -1
    outer loop
      vertex 116.7 -8.26566 -6.005
      vertex 14.4266 2.26566 -6.005
      vertex 116.7 2.26566 -6.005
    endloop
  endfacet
  facet normal 0 0 -1
    outer loop
      vertex 116.7 2.26566 -6.005
      vertex 116.7 11.1174 -6.005
      vertex 120.7 11.1174 -6.005
    endloop
  endfacet
  facet normal 0 0 -1
    outer loop
      vertex 116.7 2.26566 -6.005
      vertex 120.7 11.1174 -6.005
      vertex 116.7 -8.26566 -6.005
    endloop
  endfacet
  facet normal 0 0 -1
    outer loop
      vertex 116.7 -8.26566 -6.005
      vertex 120.7 11.1174 -6.005
      vertex 120.7 -8.26566 -6.005
    endloop
  endfacet
  facet normal 0 0 -1
    outer loop
      vertex 120.7 -8.26566 -6.005
      vertex 120.7 -11.1174 -6.005
      vertex 116.7 -8.26566 -6.005
    endloop
  endfacet
  facet normal 0 0 -1
    outer loop
      vertex 116.7 -8.26566 -6.005
      vertex 120.7 -11.1174 -6.005
      vertex 116.7 -11.1174 -6.005
    endloop
  endfacet
  facet normal -1 2.22045e-016 -2.22045e-016
    outer loop
      vertex 116.7 2.26566 6.005
      vertex 116.7 11.1174 6.005
      vertex 116.7 3.12836 5.1423
    endloop
  endfacet
  facet normal -1 2.22045e-016 -2.22045e-016
    outer loop
      vertex 116.7 3.12836 5.1423
      vertex 116.7 11.1174 6.005
      vertex 116.7 11.602 5.16556
    endloop
  endfacet
  facet normal -1 2.22045e-016 -2.22045e-016
    outer loop
      vertex 116.7 3.12836 5.1423
      vertex 116.7 11.602 5.16556
      vertex 116.7 12.4225 2.64048
    endloop
  endfacet
  facet normal -1 2.22045e-016 -2.22045e-016
    outer loop
      vertex 116.7 3.12836 5.1423
      vertex 116.7 12.4225 2.64048
      vertex 116.7 12.7 2.59126e-014
    endloop
  endfacet
  facet normal -1 2.22045e-016 -2.22045e-016
    outer loop
      vertex 116.7 3.12836 5.1423
      vertex 116.7 12.7 2.59126e-014
      vertex 116.7 12.4225 -2.64048
    endloop
  endfacet
  facet normal -1 2.22045e-016 -2.22045e-016
    outer loop
      vertex 116.7 3.12836 5.1423
      vertex 116.7 12.4225 -2.64048
      vertex 116.7 11.602 -5.16555
    endloop
  endfacet
  facet normal -1 2.22045e-016 -2.22045e-016
    outer loop
      vertex 116.7 3.9282 4
      vertex 116.7 11.1174 -6.005
      vertex 116.7 4.51754 2.73616
    endloop
  endfacet
  facet normal -1 2.22045e-016 -2.22045e-016
    outer loop
      vertex 116.7 11.1174 -6.005
      vertex 116.7 2.26566 -6.005
      vertex 116.7 3.12836 -5.1423
    endloop
  endfacet
  facet normal -1 2.22045e-016 -2.22045e-016
    outer loop
      vertex 116.7 11.1174 -6.005
      vertex 116.7 3.12836 -5.1423
      vertex 116.7 3.9282 -4
    endloop
  endfacet
  facet normal -1 2.22045e-016 -2.22045e-016
    outer loop
      vertex 116.7 11.1174 -6.005
      vertex 116.7 3.9282 -4
      vertex 116.7 4.51754 -2.73616
    endloop
  endfacet
  facet normal -1 2.22045e-016 -2.22045e-016
    outer loop
      vertex 116.7 11.1174 -6.005
      vertex 116.7 4.51754 -2.73616
      vertex 116.7 4.87846 -1.38918
    endloop
  endfacet
  facet normal -1 2.22045e-016 -2.22045e-016
    outer loop
      vertex 116.7 11.1174 -6.005
      vertex 116.7 4.87846 -1.38918
      vertex 116.7 5 2.59126e-014
    endloop
  endfacet
  facet normal -1 2.22045e-016 -2.22045e-016
    outer loop
      vertex 116.7 11.1174 -6.005
      vertex 116.7 5 2.59126e-014
      vertex 116.7 4.87846 1.38919
    endloop
  endfacet
  facet normal -1 2.22045e-016 -2.22045e-016
    outer loop
      vertex 116.7 11.1174 -6.005
      vertex 116.7 4.87846 1.38919
      vertex 116.7 4.51754 2.73616
    endloop
  endfacet
  facet normal -1 2.22045e-016 -2.22045e-016
    outer loop
      vertex 116.7 11.602 -5.16555
      vertex 116.7 11.1174 -6.005
      vertex 116.7 3.9282 4
    endloop
  endfacet
  facet normal -1 2.22045e-016 -2.22045e-016
    outer loop
      vertex 116.7 3.12836 5.1423
      vertex 116.7 11.602 -5.16555
      vertex 116.7 3.9282 4
    endloop
  endfacet
  facet normal 3.09248e-016 0.819152 -0.573576
    outer loop
      vertex 22.3226 3.9282 -4
      vertex 116.7 3.9282 -4
      vertex 22.7844 3.12836 -5.1423
    endloop
  endfacet
  facet normal 3.09248e-016 0.819152 -0.573576
    outer loop
      vertex 22.7844 3.12836 -5.1423
      vertex 116.7 3.9282 -4
      vertex 116.7 3.12836 -5.1423
    endloop
  endfacet
  facet normal 2.95081e-016 0.906308 -0.422618
    outer loop
      vertex 21.9824 4.51754 -2.73616
      vertex 116.7 4.51754 -2.73616
      vertex 22.3226 3.9282 -4
    endloop
  endfacet
  facet normal 2.95081e-016 0.906308 -0.422618
    outer loop
      vertex 22.3226 3.9282 -4
      vertex 116.7 4.51754 -2.73616
      vertex 116.7 3.9282 -4
    endloop
  endfacet
  facet normal 2.71948e-016 0.965926 -0.258819
    outer loop
      vertex 21.774 4.87846 -1.38918
      vertex 116.7 4.87846 -1.38918
      vertex 21.9824 4.51754 -2.73616
    endloop
  endfacet
  facet normal 2.71948e-016 0.965926 -0.258819
    outer loop
      vertex 21.9824 4.51754 -2.73616
      vertex 116.7 4.87846 -1.38918
      vertex 116.7 4.51754 -2.73616
    endloop
  endfacet
  facet normal 2.40552e-016 0.996195 -0.0871558
    outer loop
      vertex 21.7038 5 4.81922e-015
      vertex 116.7 5 2.59126e-014
      vertex 21.774 4.87846 -1.38918
    endloop
  endfacet
  facet normal 2.40552e-016 0.996195 -0.0871558
    outer loop
      vertex 21.774 4.87846 -1.38918
      vertex 116.7 5 2.59126e-014
      vertex 116.7 4.87846 -1.38918
    endloop
  endfacet
  facet normal 2.01847e-016 0.996195 0.0871558
    outer loop
      vertex 21.7038 5 4.81922e-015
      vertex 21.774 4.87846 1.38919
      vertex 116.7 5 2.59126e-014
    endloop
  endfacet
  facet normal 2.01847e-016 0.996195 0.0871558
    outer loop
      vertex 116.7 5 2.59126e-014
      vertex 21.774 4.87846 1.38919
      vertex 116.7 4.87846 1.38919
    endloop
  endfacet
  facet normal 1.57009e-016 0.965926 0.258819
    outer loop
      vertex 21.774 4.87846 1.38919
      vertex 21.9824 4.51754 2.73616
      vertex 116.7 4.87846 1.38919
    endloop
  endfacet
  facet normal 1.57009e-016 0.965926 0.258819
    outer loop
      vertex 116.7 4.87846 1.38919
      vertex 21.9824 4.51754 2.73616
      vertex 116.7 4.51754 2.73616
    endloop
  endfacet
  facet normal 1.07401e-016 0.906308 0.422618
    outer loop
      vertex 21.9824 4.51754 2.73616
      vertex 22.3226 3.9282 4
      vertex 116.7 4.51754 2.73616
    endloop
  endfacet
  facet normal 1.07401e-016 0.906308 0.422618
    outer loop
      vertex 116.7 4.51754 2.73616
      vertex 22.3226 3.9282 4
      vertex 116.7 3.9282 4
    endloop
  endfacet
  facet normal 5.45289e-017 0.819152 0.573576
    outer loop
      vertex 22.3226 3.9282 4
      vertex 22.7844 3.12836 5.1423
      vertex 116.7 3.9282 4
    endloop
  endfacet
  facet normal 5.45289e-017 0.819152 0.573576
    outer loop
      vertex 116.7 3.9282 4
      vertex 22.7844 3.12836 5.1423
      vertex 116.7 3.12836 5.1423
    endloop
  endfacet
  facet normal -1 0 0
    outer loop
      vertex 14.2 -12.8041 -6
      vertex 14.2 -12.8041 6
      vertex 14.2 -8.27066 -6
    endloop
  endfacet
  facet normal -1 0 0
    outer loop
      vertex 14.2 -8.27066 -6
      vertex 14.2 -12.8041 6
      vertex 14.2 -8.27066 6
    endloop
  endfacet
  facet normal -1 0 0
    outer loop
      vertex 14.2 -8.27066 -6
      vertex 14.2 -8.27066 6
      vertex 14.2 -8.26566 6.005
    endloop
  endfacet
  facet normal -1 0 0
    outer loop
      vertex 14.2 -8.27066 -6
      vertex 14.2 -8.26566 6.005
      vertex 14.2 -6.59589 6.005
    endloop
  endfacet
  facet normal -1 0 0
    outer loop
      vertex 14.2 -8.27066 -6
      vertex 14.2 -6.59589 6.005
      vertex 14.2 -6.59589 -6.005
    endloop
  endfacet
  facet normal -1 0 0
    outer loop
      vertex 14.2 -8.27066 -6
      vertex 14.2 -6.59589 -6.005
      vertex 14.2 -8.26566 -6.005
    endloop
  endfacet
  facet normal -0.773957 0.633238 0
    outer loop
      vertex 14.222 -6.569 6.005
      vertex 14.222 -6.569 -6.005
      vertex 14.2 -6.59589 6.005
    endloop
  endfacet
  facet normal -0.773957 0.633238 0
    outer loop
      vertex 14.2 -6.59589 6.005
      vertex 14.222 -6.569 -6.005
      vertex 14.2 -6.59589 -6.005
    endloop
  endfacet
  facet normal -0.808946 0.587883 0
    outer loop
      vertex 14.464 -6.236 6.005
      vertex 14.464 -6.236 -6.005
      vertex 14.222 -6.569 6.005
    endloop
  endfacet
  facet normal -0.808946 0.587883 0
    outer loop
      vertex 14.222 -6.569 6.005
      vertex 14.464 -6.236 -6.005
      vertex 14.222 -6.569 -6.005
    endloop
  endfacet
  facet normal -0.882075 0.471108 0
    outer loop
      vertex 14.511 -6.148 6.005
      vertex 14.511 -6.148 -6.005
      vertex 14.464 -6.236 6.005
    endloop
  endfacet
  facet normal -0.882075 0.471108 0
    outer loop
      vertex 14.464 -6.236 6.005
      vertex 14.511 -6.148 -6.005
      vertex 14.464 -6.236 -6.005
    endloop
  endfacet
  facet normal -0.957276 0.289177 0
    outer loop
      vertex 14.54 -6.052 6.005
      vertex 14.54 -6.052 -6.005
      vertex 14.511 -6.148 6.005
    endloop
  endfacet
  facet normal -0.957276 0.289177 0
    outer loop
      vertex 14.511 -6.148 6.005
      vertex 14.54 -6.052 -6.005
      vertex 14.511 -6.148 -6.005
    endloop
  endfacet
  facet normal -1 0 0
    outer loop
      vertex 14.54 -5.269 6.005
      vertex 14.54 -5.269 -6.005
      vertex 14.54 -6.052 6.005
    endloop
  endfacet
  facet normal -1 0 0
    outer loop
      vertex 14.54 -6.052 6.005
      vertex 14.54 -5.269 -6.005
      vertex 14.54 -6.052 -6.005
    endloop
  endfacet
  facet normal -0.813733 0.581238 0
    outer loop
      vertex 14.55 -5.255 6.005
      vertex 14.55 -5.255 -6.005
      vertex 14.54 -5.269 6.005
    endloop
  endfacet
  facet normal -0.813733 0.581238 0
    outer loop
      vertex 14.54 -5.269 6.005
      vertex 14.55 -5.255 -6.005
      vertex 14.54 -5.269 -6.005
    endloop
  endfacet
  facet normal -1 0 0
    outer loop
      vertex 14.55 1.73 6.005
      vertex 14.55 1.73 -6.005
      vertex 14.55 -5.255 6.005
    endloop
  endfacet
  facet normal -1 0 0
    outer loop
      vertex 14.55 -5.255 6.005
      vertex 14.55 1.73 -6.005
      vertex 14.55 -5.255 -6.005
    endloop
  endfacet
  facet normal -0.99535 -0.0963242 0
    outer loop
      vertex 14.55 1.73 6.005
      vertex 14.526 1.978 6.005
      vertex 14.55 1.73 -6.005
    endloop
  endfacet
  facet normal -0.99535 -0.0963242 0
    outer loop
      vertex 14.55 1.73 -6.005
      vertex 14.526 1.978 6.005
      vertex 14.526 1.978 -6.005
    endloop
  endfacet
  facet normal 8.12741e-017 0.866026 0.5
    outer loop
      vertex 116.7 11.1174 6.005
      vertex 120.7 11.1174 6.005
      vertex 116.7 11.602 5.16556
    endloop
  endfacet
  facet normal 8.12741e-017 0.866026 0.5
    outer loop
      vertex 116.7 11.602 5.16556
      vertex 120.7 11.1174 6.005
      vertex 120.7 11.602 5.16556
    endloop
  endfacet
  facet normal 1 0 0
    outer loop
      vertex 120.7 -10.8785 1.38919
      vertex 120.7 -11 2.68008e-014
      vertex 120.7 -10.8785 -1.38918
    endloop
  endfacet
  facet normal 1 0 0
    outer loop
      vertex 120.7 -9.9282 -4
      vertex 120.7 -10.8785 1.38919
      vertex 120.7 -10.5175 -2.73616
    endloop
  endfacet
  facet normal 1 0 0
    outer loop
      vertex 120.7 -10.5175 -2.73616
      vertex 120.7 -10.8785 1.38919
      vertex 120.7 -10.8785 -1.38918
    endloop
  endfacet
  facet normal 1 0 0
    outer loop
      vertex 120.7 -9.12836 -5.1423
      vertex 120.7 -10.8785 1.38919
      vertex 120.7 -9.9282 -4
    endloop
  endfacet
  facet normal 1 0 0
    outer loop
      vertex 120.7 -8.26566 -6.005
      vertex 120.7 -10.8785 1.38919
      vertex 120.7 -9.12836 -5.1423
    endloop
  endfacet
  facet normal 1 0 0
    outer loop
      vertex 120.7 11.1174 -6.005
      vertex 120.7 -10.8785 1.38919
      vertex 120.7 -8.26566 -6.005
    endloop
  endfacet
  facet normal 1 0 0
    outer loop
      vertex 120.7 11.602 -5.16555
      vertex 120.7 -10.8785 1.38919
      vertex 120.7 11.1174 -6.005
    endloop
  endfacet
  facet normal 1 0 0
    outer loop
      vertex 120.7 12.4225 -2.64048
      vertex 120.7 -10.8785 1.38919
      vertex 120.7 11.602 -5.16555
    endloop
  endfacet
  facet normal 1 0 0
    outer loop
      vertex 120.7 12.7 2.68008e-014
      vertex 120.7 -10.8785 1.38919
      vertex 120.7 12.4225 -2.64048
    endloop
  endfacet
  facet normal 1 0 0
    outer loop
      vertex 120.7 12.4225 2.64048
      vertex 120.7 -10.8785 1.38919
      vertex 120.7 12.7 2.68008e-014
    endloop
  endfacet
  facet normal 1 0 0
    outer loop
      vertex 120.7 11.602 5.16556
      vertex 120.7 -10.8785 1.38919
      vertex 120.7 12.4225 2.64048
    endloop
  endfacet
  facet normal 1 0 0
    outer loop
      vertex 120.7 3.95104 3.95104
      vertex 120.7 -10.8785 1.38919
      vertex 120.7 11.602 5.16556
    endloop
  endfacet
  facet normal 1 0 0
    outer loop
      vertex 120.7 11.1174 6.005
      vertex 120.7 3.95104 3.95104
      vertex 120.7 11.602 5.16556
    endloop
  endfacet
  facet normal 1 0 0
    outer loop
      vertex 120.7 3.9282 4
      vertex 120.7 -10.8785 1.38919
      vertex 120.7 3.95104 3.95104
    endloop
  endfacet
  facet normal 1 0 0
    outer loop
      vertex 120.7 3.12836 5.1423
      vertex 120.7 2.26566 6.005
      vertex 120.7 -10.8785 1.38919
    endloop
  endfacet
  facet normal 1 0 0
    outer loop
      vertex 120.7 -8.26566 6.005
      vertex 120.7 -10.8785 1.38919
      vertex 120.7 2.26566 6.005
    endloop
  endfacet
  facet normal 1 0 0
    outer loop
      vertex 120.7 -9.12836 5.1423
      vertex 120.7 -10.8785 1.38919
      vertex 120.7 -8.26566 6.005
    endloop
  endfacet
  facet normal 1 0 0
    outer loop
      vertex 120.7 -9.9282 4
      vertex 120.7 -10.8785 1.38919
      vertex 120.7 -9.12836 5.1423
    endloop
  endfacet
  facet normal 1 0 0
    outer loop
      vertex 120.7 -10.5175 2.73616
      vertex 120.7 -10.8785 1.38919
      vertex 120.7 -9.9282 4
    endloop
  endfacet
  facet normal 1 0 0
    outer loop
      vertex 120.7 3.9282 4
      vertex 120.7 3.12836 5.1423
      vertex 120.7 -10.8785 1.38919
    endloop
  endfacet
  facet normal 1 0 0
    outer loop
      vertex 120.7 6.005 6.005
      vertex 120.7 3.95104 3.95104
      vertex 120.7 11.1174 6.005
    endloop
  endfacet
  facet normal 1 -2.22045e-016 2.22045e-016
    outer loop
      vertex 120.7 6.005 6.005
      vertex 120.7 2.26566 6.005
      vertex 120.7 3.12836 5.1423
    endloop
  endfacet
  facet normal 1 -2.22045e-016 2.22045e-016
    outer loop
      vertex 120.7 3.9282 4
      vertex 120.7 6.005 6.005
      vertex 120.7 3.12836 5.1423
    endloop
  endfacet
  facet normal 1 -2.22045e-016 2.22045e-016
    outer loop
      vertex 120.7 3.9282 4
      vertex 120.7 3.95104 3.95104
      vertex 120.7 6.005 6.005
    endloop
  endfacet
  facet normal 1 -2.22045e-016 2.22045e-016
    outer loop
      vertex 120.7 -8.26566 6.005
      vertex 120.7 -11.1174 6.005
      vertex 120.7 -11.602 5.16556
    endloop
  endfacet
  facet normal 1 -2.22045e-016 2.22045e-016
    outer loop
      vertex 120.7 -9.12836 5.1423
      vertex 120.7 -8.26566 6.005
      vertex 120.7 -12.4225 2.64048
    endloop
  endfacet
  facet normal 1 -2.22045e-016 2.22045e-016
    outer loop
      vertex 120.7 -12.4225 2.64048
      vertex 120.7 -8.26566 6.005
      vertex 120.7 -11.602 5.16556
    endloop
  endfacet
  facet normal 1 -2.22045e-016 2.22045e-016
    outer loop
      vertex 120.7 -10.5175 2.73616
      vertex 120.7 -9.9282 4
      vertex 120.7 -12.7 2.68008e-014
    endloop
  endfacet
  facet normal 1 -2.22045e-016 2.22045e-016
    outer loop
      vertex 120.7 -11 2.68008e-014
      vertex 120.7 -10.8785 1.38919
      vertex 120.7 -12.4225 -2.64048
    endloop
  endfacet
  facet normal 1 -2.22045e-016 2.22045e-016
    outer loop
      vertex 120.7 -10.5175 -2.73616
      vertex 120.7 -10.8785 -1.38918
      vertex 120.7 -11.602 -5.16555
    endloop
  endfacet
  facet normal 1 -2.22045e-016 2.22045e-016
    outer loop
      vertex 120.7 -8.26566 -6.005
      vertex 120.7 -9.12836 -5.1423
      vertex 120.7 -11.1174 -6.005
    endloop
  endfacet
  facet normal 1 -2.22045e-016 2.22045e-016
    outer loop
      vertex 120.7 -9.12836 -5.1423
      vertex 120.7 -9.9282 -4
      vertex 120.7 -11.1174 -6.005
    endloop
  endfacet
  facet normal 1 -2.22045e-016 2.22045e-016
    outer loop
      vertex 120.7 -11.1174 -6.005
      vertex 120.7 -10.5175 -2.73616
      vertex 120.7 -11.602 -5.16555
    endloop
  endfacet
  facet normal 1 -2.22045e-016 2.22045e-016
    outer loop
      vertex 120.7 -11.602 -5.16555
      vertex 120.7 -10.8785 -1.38918
      vertex 120.7 -12.4225 -2.64048
    endloop
  endfacet
  facet normal 1 -2.22045e-016 2.22045e-016
    outer loop
      vertex 120.7 -10.8785 -1.38918
      vertex 120.7 -11 2.68008e-014
      vertex 120.7 -12.4225 -2.64048
    endloop
  endfacet
  facet normal 1 -2.22045e-016 2.22045e-016
    outer loop
      vertex 120.7 -12.4225 -2.64048
      vertex 120.7 -10.8785 1.38919
      vertex 120.7 -12.7 2.68008e-014
    endloop
  endfacet
  facet normal 1 -2.22045e-016 2.22045e-016
    outer loop
      vertex 120.7 -10.8785 1.38919
      vertex 120.7 -10.5175 2.73616
      vertex 120.7 -12.7 2.68008e-014
    endloop
  endfacet
  facet normal 1 -2.22045e-016 2.22045e-016
    outer loop
      vertex 120.7 -12.7 2.68008e-014
      vertex 120.7 -9.9282 4
      vertex 120.7 -12.4225 2.64048
    endloop
  endfacet
  facet normal 1 -2.22045e-016 2.22045e-016
    outer loop
      vertex 120.7 -9.9282 4
      vertex 120.7 -9.12836 5.1423
      vertex 120.7 -12.4225 2.64048
    endloop
  endfacet
  facet normal 1 -2.22045e-016 2.22045e-016
    outer loop
      vertex 120.7 -9.9282 -4
      vertex 120.7 -10.5175 -2.73616
      vertex 120.7 -11.1174 -6.005
    endloop
  endfacet
  facet normal -3.03319e-016 -0.866026 0.5
    outer loop
      vertex 120.7 -11.1174 6.005
      vertex 116.7 -11.1174 6.005
      vertex 116.7 -11.602 5.16556
    endloop
  endfacet
  facet normal -3.03319e-016 -0.866026 0.5
    outer loop
      vertex 120.7 -11.602 5.16556
      vertex 120.7 -11.1174 6.005
      vertex 116.7 -11.602 5.16556
    endloop
  endfacet
  facet normal -1 2.22045e-016 -2.22045e-016
    outer loop
      vertex 116.7 -11.1174 6.005
      vertex 116.7 -8.26566 6.005
      vertex 116.7 -11.602 5.16556
    endloop
  endfacet
  facet normal -1 2.22045e-016 -2.22045e-016
    outer loop
      vertex 116.7 -11.602 5.16556
      vertex 116.7 -8.26566 6.005
      vertex 116.7 -9.12836 5.1423
    endloop
  endfacet
  facet normal -1 2.22045e-016 -2.22045e-016
    outer loop
      vertex 116.7 -11.602 5.16556
      vertex 116.7 -9.12836 5.1423
      vertex 116.7 -9.9282 4
    endloop
  endfacet
  facet normal -1 2.22045e-016 -2.22045e-016
    outer loop
      vertex 116.7 -9.9282 4
      vertex 116.7 -10.5175 2.73616
      vertex 116.7 -11.602 5.16556
    endloop
  endfacet
  facet normal -1 2.22045e-016 -2.22045e-016
    outer loop
      vertex 116.7 -10.5175 2.73616
      vertex 116.7 -10.8785 1.38919
      vertex 116.7 -11.602 5.16556
    endloop
  endfacet
  facet normal -1 2.22045e-016 -2.22045e-016
    outer loop
      vertex 116.7 -10.8785 1.38919
      vertex 116.7 -11 2.59126e-014
      vertex 116.7 -11.602 5.16556
    endloop
  endfacet
  facet normal -1 2.22045e-016 -2.22045e-016
    outer loop
      vertex 116.7 -11 2.59126e-014
      vertex 116.7 -10.8785 -1.38918
      vertex 116.7 -11.602 5.16556
    endloop
  endfacet
  facet normal -1 2.22045e-016 -2.22045e-016
    outer loop
      vertex 116.7 -10.8785 -1.38918
      vertex 116.7 -11.1174 -6.005
      vertex 116.7 -11.602 5.16556
    endloop
  endfacet
  facet normal -1 2.22045e-016 -2.22045e-016
    outer loop
      vertex 116.7 -10.5175 -2.73616
      vertex 116.7 -11.1174 -6.005
      vertex 116.7 -10.8785 -1.38918
    endloop
  endfacet
  facet normal -1 2.22045e-016 -2.22045e-016
    outer loop
      vertex 116.7 -9.9282 -4
      vertex 116.7 -11.1174 -6.005
      vertex 116.7 -10.5175 -2.73616
    endloop
  endfacet
  facet normal -1 2.22045e-016 -2.22045e-016
    outer loop
      vertex 116.7 -9.12836 -5.1423
      vertex 116.7 -8.26566 -6.005
      vertex 116.7 -11.1174 -6.005
    endloop
  endfacet
  facet normal -1 2.22045e-016 -2.22045e-016
    outer loop
      vertex 116.7 -9.12836 -5.1423
      vertex 116.7 -11.1174 -6.005
      vertex 116.7 -9.9282 -4
    endloop
  endfacet
  facet normal -1 2.22045e-016 -2.22045e-016
    outer loop
      vertex 116.7 -11.602 5.16556
      vertex 116.7 -11.1174 -6.005
      vertex 116.7 -11.602 -5.16555
    endloop
  endfacet
  facet normal -1 2.22045e-016 -2.22045e-016
    outer loop
      vertex 116.7 -11.602 5.16556
      vertex 116.7 -11.602 -5.16555
      vertex 116.7 -12.4225 -2.64048
    endloop
  endfacet
  facet normal -1 2.22045e-016 -2.22045e-016
    outer loop
      vertex 116.7 -11.602 5.16556
      vertex 116.7 -12.4225 -2.64048
      vertex 116.7 -12.7 2.59126e-014
    endloop
  endfacet
  facet normal -1 2.22045e-016 -2.22045e-016
    outer loop
      vertex 116.7 -11.602 5.16556
      vertex 116.7 -12.7 2.59126e-014
      vertex 116.7 -12.4225 2.64048
    endloop
  endfacet
  facet normal -3.14018e-016 -0.707107 0.707107
    outer loop
      vertex 14.2 -8.26566 6.005
      vertex 14.2 -8.27066 6
      vertex 24.4343 -8.27066 6
    endloop
  endfacet
  facet normal -3.14018e-016 -0.707107 0.707107
    outer loop
      vertex 116.7 -8.26566 6.005
      vertex 14.2 -8.26566 6.005
      vertex 24.4343 -8.27066 6
    endloop
  endfacet
  facet normal -3.14018e-016 -0.707107 0.707107
    outer loop
      vertex 23.9391 -9.12836 5.1423
      vertex 116.7 -9.12836 5.1423
      vertex 24.4343 -8.27066 6
    endloop
  endfacet
  facet normal -3.14018e-016 -0.707107 0.707107
    outer loop
      vertex 116.7 -9.12836 5.1423
      vertex 116.7 -8.26566 6.005
      vertex 24.4343 -8.27066 6
    endloop
  endfacet
  facet normal 0 -0.707107 -0.707107
    outer loop
      vertex 24.4343 -8.27066 -6
      vertex 14.2 -8.27066 -6
      vertex 14.2 -8.26566 -6.005
    endloop
  endfacet
  facet normal 0 -0.707107 -0.707107
    outer loop
      vertex 116.7 -9.12836 -5.1423
      vertex 24.4343 -8.27066 -6
      vertex 116.7 -8.26566 -6.005
    endloop
  endfacet
  facet normal 0 -0.707107 -0.707107
    outer loop
      vertex 116.7 -8.26566 -6.005
      vertex 24.4343 -8.27066 -6
      vertex 14.2 -8.26566 -6.005
    endloop
  endfacet
  facet normal 0 -0.707107 -0.707107
    outer loop
      vertex 23.9391 -9.12836 -5.1423
      vertex 24.4343 -8.27066 -6
      vertex 116.7 -9.12836 -5.1423
    endloop
  endfacet
  facet normal -8.12741e-017 -0.866026 -0.5
    outer loop
      vertex 120.7 -11.602 -5.16555
      vertex 116.7 -11.602 -5.16555
      vertex 116.7 -11.1174 -6.005
    endloop
  endfacet
  facet normal -8.12741e-017 -0.866026 -0.5
    outer loop
      vertex 120.7 -11.1174 -6.005
      vertex 120.7 -11.602 -5.16555
      vertex 116.7 -11.1174 -6.005
    endloop
  endfacet
  facet normal 3.03319e-016 0.866026 -0.5
    outer loop
      vertex 116.7 11.602 -5.16555
      vertex 120.7 11.602 -5.16555
      vertex 116.7 11.1174 -6.005
    endloop
  endfacet
  facet normal 3.03319e-016 0.866026 -0.5
    outer loop
      vertex 116.7 11.1174 -6.005
      vertex 120.7 11.602 -5.16555
      vertex 120.7 11.1174 -6.005
    endloop
  endfacet
  facet normal 2.79793e-016 0.951056 -0.309017
    outer loop
      vertex 116.7 12.4225 -2.64048
      vertex 120.7 12.4225 -2.64048
      vertex 116.7 11.602 -5.16555
    endloop
  endfacet
  facet normal 2.79793e-016 0.951056 -0.309017
    outer loop
      vertex 116.7 11.602 -5.16555
      vertex 120.7 12.4225 -2.64048
      vertex 120.7 11.602 -5.16555
    endloop
  endfacet
  facet normal 2.44038e-016 0.994522 -0.104528
    outer loop
      vertex 116.7 12.7 2.59126e-014
      vertex 120.7 12.7 2.68008e-014
      vertex 116.7 12.4225 -2.64048
    endloop
  endfacet
  facet normal 2.44038e-016 0.994522 -0.104528
    outer loop
      vertex 116.7 12.4225 -2.64048
      vertex 120.7 12.7 2.68008e-014
      vertex 120.7 12.4225 -2.64048
    endloop
  endfacet
  facet normal 1.97618e-016 0.994522 0.104528
    outer loop
      vertex 116.7 12.4225 2.64048
      vertex 120.7 12.4225 2.64048
      vertex 116.7 12.7 2.59126e-014
    endloop
  endfacet
  facet normal 1.97618e-016 0.994522 0.104528
    outer loop
      vertex 116.7 12.7 2.59126e-014
      vertex 120.7 12.4225 2.64048
      vertex 120.7 12.7 2.68008e-014
    endloop
  endfacet
  facet normal 1.42561e-016 0.951056 0.309017
    outer loop
      vertex 116.7 11.602 5.16556
      vertex 120.7 11.602 5.16556
      vertex 116.7 12.4225 2.64048
    endloop
  endfacet
  facet normal 1.42561e-016 0.951056 0.309017
    outer loop
      vertex 116.7 12.4225 2.64048
      vertex 120.7 11.602 5.16556
      vertex 120.7 12.4225 2.64048
    endloop
  endfacet
  facet normal 0 0 -1
    outer loop
      vertex 14.2 -22.7 -6
      vertex 14.2 -22.0231 -6
      vertex 16.1035 -22.7 -6
    endloop
  endfacet
  facet normal 0 0 -1
    outer loop
      vertex 16.1035 -22.7 -6
      vertex 14.2 -22.0231 -6
      vertex 14.336 -21.836 -6
    endloop
  endfacet
  facet normal 0 0 -1
    outer loop
      vertex 16.1035 -22.7 -6
      vertex 14.336 -21.836 -6
      vertex 14.453 -21.616 -6
    endloop
  endfacet
  facet normal 0 0 -1
    outer loop
      vertex 14.453 -21.616 -6
      vertex 14.526 -21.378 -6
      vertex 16.1035 -22.7 -6
    endloop
  endfacet
  facet normal 0 0 -1
    outer loop
      vertex 14.526 -21.378 -6
      vertex 14.55 -21.13 -6
      vertex 16.1035 -22.7 -6
    endloop
  endfacet
  facet normal 0 0 -1
    outer loop
      vertex 14.55 -21.13 -6
      vertex 14.55 -14.145 -6
      vertex 16.1035 -22.7 -6
    endloop
  endfacet
  facet normal 0 0 -1
    outer loop
      vertex 14.55 -14.145 -6
      vertex 14.54 -14.131 -6
      vertex 14.54 -13.348 -6
    endloop
  endfacet
  facet normal 0 0 -1
    outer loop
      vertex 14.55 -14.145 -6
      vertex 14.54 -13.348 -6
      vertex 16.1035 -22.7 -6
    endloop
  endfacet
  facet normal 0 0 -1
    outer loop
      vertex 14.54 -13.348 -6
      vertex 14.2 -8.27066 -6
      vertex 16.1035 -22.7 -6
    endloop
  endfacet
  facet normal 0 0 -1
    outer loop
      vertex 14.511 -13.252 -6
      vertex 14.2 -8.27066 -6
      vertex 14.54 -13.348 -6
    endloop
  endfacet
  facet normal 0 0 -1
    outer loop
      vertex 14.464 -13.164 -6
      vertex 14.2 -8.27066 -6
      vertex 14.511 -13.252 -6
    endloop
  endfacet
  facet normal 0 0 -1
    outer loop
      vertex 14.222 -12.831 -6
      vertex 14.2 -12.8041 -6
      vertex 14.2 -8.27066 -6
    endloop
  endfacet
  facet normal 0 0 -1
    outer loop
      vertex 14.222 -12.831 -6
      vertex 14.2 -8.27066 -6
      vertex 14.464 -13.164 -6
    endloop
  endfacet
  facet normal 0 0 -1
    outer loop
      vertex 16.1035 -22.7 -6
      vertex 14.2 -8.27066 -6
      vertex 24.4343 -8.27066 -6
    endloop
  endfacet
  facet normal 0 0 1
    outer loop
      vertex 14.2 -22.0231 6
      vertex 14.2 -22.7 6
      vertex 16.1035 -22.7 6
    endloop
  endfacet
  facet normal 0 0 1
    outer loop
      vertex 14.336 -21.836 6
      vertex 14.2 -22.0231 6
      vertex 24.4343 -8.27066 6
    endloop
  endfacet
  facet normal 0 0 1
    outer loop
      vertex 24.4343 -8.27066 6
      vertex 14.2 -22.0231 6
      vertex 16.1035 -22.7 6
    endloop
  endfacet
  facet normal 0 0 1
    outer loop
      vertex 14.2 -8.27066 6
      vertex 14.2 -12.8041 6
      vertex 24.4343 -8.27066 6
    endloop
  endfacet
  facet normal 0 0 1
    outer loop
      vertex 14.2 -12.8041 6
      vertex 14.222 -12.831 6
      vertex 24.4343 -8.27066 6
    endloop
  endfacet
  facet normal 0 0 1
    outer loop
      vertex 14.222 -12.831 6
      vertex 14.464 -13.164 6
      vertex 24.4343 -8.27066 6
    endloop
  endfacet
  facet normal 0 0 1
    outer loop
      vertex 14.464 -13.164 6
      vertex 14.511 -13.252 6
      vertex 24.4343 -8.27066 6
    endloop
  endfacet
  facet normal 0 0 1
    outer loop
      vertex 14.511 -13.252 6
      vertex 14.54 -13.348 6
      vertex 24.4343 -8.27066 6
    endloop
  endfacet
  facet normal 0 0 1
    outer loop
      vertex 14.54 -13.348 6
      vertex 14.54 -14.131 6
      vertex 24.4343 -8.27066 6
    endloop
  endfacet
  facet normal 0 0 1
    outer loop
      vertex 14.54 -14.131 6
      vertex 14.55 -14.145 6
      vertex 24.4343 -8.27066 6
    endloop
  endfacet
  facet normal 0 0 1
    outer loop
      vertex 14.55 -14.145 6
      vertex 14.55 -21.13 6
      vertex 24.4343 -8.27066 6
    endloop
  endfacet
  facet normal 0 0 1
    outer loop
      vertex 14.55 -21.13 6
      vertex 14.526 -21.378 6
      vertex 24.4343 -8.27066 6
    endloop
  endfacet
  facet normal 0 0 1
    outer loop
      vertex 14.526 -21.378 6
      vertex 14.453 -21.616 6
      vertex 24.4343 -8.27066 6
    endloop
  endfacet
  facet normal 0 0 1
    outer loop
      vertex 14.453 -21.616 6
      vertex 14.336 -21.836 6
      vertex 24.4343 -8.27066 6
    endloop
  endfacet
  facet normal -0.773957 -0.633238 0
    outer loop
      vertex 14.222 -12.831 6
      vertex 14.2 -12.8041 6
      vertex 14.222 -12.831 -6
    endloop
  endfacet
  facet normal -0.773957 -0.633238 0
    outer loop
      vertex 14.222 -12.831 -6
      vertex 14.2 -12.8041 6
      vertex 14.2 -12.8041 -6
    endloop
  endfacet
  facet normal -1.42561e-016 -0.951056 -0.309017
    outer loop
      vertex 120.7 -12.4225 -2.64048
      vertex 116.7 -12.4225 -2.64048
      vertex 116.7 -11.602 -5.16555
    endloop
  endfacet
  facet normal -1.42561e-016 -0.951056 -0.309017
    outer loop
      vertex 120.7 -11.602 -5.16555
      vertex 120.7 -12.4225 -2.64048
      vertex 116.7 -11.602 -5.16555
    endloop
  endfacet
  facet normal -1.97618e-016 -0.994522 -0.104528
    outer loop
      vertex 120.7 -12.7 2.68008e-014
      vertex 116.7 -12.7 2.59126e-014
      vertex 116.7 -12.4225 -2.64048
    endloop
  endfacet
  facet normal -1.97618e-016 -0.994522 -0.104528
    outer loop
      vertex 120.7 -12.4225 -2.64048
      vertex 120.7 -12.7 2.68008e-014
      vertex 116.7 -12.4225 -2.64048
    endloop
  endfacet
  facet normal -2.44038e-016 -0.994522 0.104528
    outer loop
      vertex 120.7 -12.4225 2.64048
      vertex 116.7 -12.4225 2.64048
      vertex 116.7 -12.7 2.59126e-014
    endloop
  endfacet
  facet normal -2.44038e-016 -0.994522 0.104528
    outer loop
      vertex 120.7 -12.7 2.68008e-014
      vertex 120.7 -12.4225 2.64048
      vertex 116.7 -12.7 2.59126e-014
    endloop
  endfacet
  facet normal -2.79793e-016 -0.951056 0.309017
    outer loop
      vertex 120.7 -11.602 5.16556
      vertex 116.7 -11.602 5.16556
      vertex 116.7 -12.4225 2.64048
    endloop
  endfacet
  facet normal -2.79793e-016 -0.951056 0.309017
    outer loop
      vertex 120.7 -12.4225 2.64048
      vertex 120.7 -11.602 5.16556
      vertex 116.7 -12.4225 2.64048
    endloop
  endfacet
  facet normal -5.45289e-017 -0.819152 -0.573576
    outer loop
      vertex 116.7 -9.9282 -4
      vertex 23.4774 -9.9282 -4
      vertex 23.9391 -9.12836 -5.1423
    endloop
  endfacet
  facet normal -5.45289e-017 -0.819152 -0.573576
    outer loop
      vertex 116.7 -9.12836 -5.1423
      vertex 116.7 -9.9282 -4
      vertex 23.9391 -9.12836 -5.1423
    endloop
  endfacet
  facet normal -1.07401e-016 -0.906308 -0.422618
    outer loop
      vertex 116.7 -10.5175 -2.73616
      vertex 23.1371 -10.5175 -2.73616
      vertex 23.4774 -9.9282 -4
    endloop
  endfacet
  facet normal -1.07401e-016 -0.906308 -0.422618
    outer loop
      vertex 116.7 -9.9282 -4
      vertex 116.7 -10.5175 -2.73616
      vertex 23.4774 -9.9282 -4
    endloop
  endfacet
  facet normal -1.57009e-016 -0.965926 -0.258819
    outer loop
      vertex 116.7 -10.8785 -1.38918
      vertex 22.9287 -10.8785 -1.38918
      vertex 23.1371 -10.5175 -2.73616
    endloop
  endfacet
  facet normal -1.57009e-016 -0.965926 -0.258819
    outer loop
      vertex 116.7 -10.5175 -2.73616
      vertex 116.7 -10.8785 -1.38918
      vertex 23.1371 -10.5175 -2.73616
    endloop
  endfacet
  facet normal -2.01847e-016 -0.996195 -0.0871558
    outer loop
      vertex 116.7 -11 2.59126e-014
      vertex 22.8585 -11 5.07562e-015
      vertex 22.9287 -10.8785 -1.38918
    endloop
  endfacet
  facet normal -2.01847e-016 -0.996195 -0.0871558
    outer loop
      vertex 116.7 -10.8785 -1.38918
      vertex 116.7 -11 2.59126e-014
      vertex 22.9287 -10.8785 -1.38918
    endloop
  endfacet
  facet normal -2.40552e-016 -0.996195 0.0871558
    outer loop
      vertex 22.9287 -10.8785 1.38919
      vertex 22.8585 -11 5.07562e-015
      vertex 116.7 -11 2.59126e-014
    endloop
  endfacet
  facet normal -2.40552e-016 -0.996195 0.0871558
    outer loop
      vertex 116.7 -10.8785 1.38919
      vertex 22.9287 -10.8785 1.38919
      vertex 116.7 -11 2.59126e-014
    endloop
  endfacet
  facet normal -2.71948e-016 -0.965926 0.258819
    outer loop
      vertex 23.1371 -10.5175 2.73616
      vertex 22.9287 -10.8785 1.38919
      vertex 116.7 -10.8785 1.38919
    endloop
  endfacet
  facet normal -2.71948e-016 -0.965926 0.258819
    outer loop
      vertex 116.7 -10.5175 2.73616
      vertex 23.1371 -10.5175 2.73616
      vertex 116.7 -10.8785 1.38919
    endloop
  endfacet
  facet normal -2.95081e-016 -0.906308 0.422618
    outer loop
      vertex 23.4774 -9.9282 4
      vertex 23.1371 -10.5175 2.73616
      vertex 116.7 -10.5175 2.73616
    endloop
  endfacet
  facet normal -2.95081e-016 -0.906308 0.422618
    outer loop
      vertex 116.7 -9.9282 4
      vertex 23.4774 -9.9282 4
      vertex 116.7 -10.5175 2.73616
    endloop
  endfacet
  facet normal -3.09248e-016 -0.819152 0.573576
    outer loop
      vertex 23.9391 -9.12836 5.1423
      vertex 23.4774 -9.9282 4
      vertex 116.7 -9.9282 4
    endloop
  endfacet
  facet normal -3.09248e-016 -0.819152 0.573576
    outer loop
      vertex 116.7 -9.12836 5.1423
      vertex 23.9391 -9.12836 5.1423
      vertex 116.7 -9.9282 4
    endloop
  endfacet
  facet normal 0.866025 -0.5 0
    outer loop
      vertex 16.1035 -22.7 6
      vertex 16.1035 -22.7 -6
      vertex 24.4343 -8.27066 -6
    endloop
  endfacet
  facet normal 0.866025 -0.5 0
    outer loop
      vertex 23.4774 -9.9282 -4
      vertex 16.1035 -22.7 6
      vertex 23.9391 -9.12836 -5.1423
    endloop
  endfacet
  facet normal 0.866025 -0.5 0
    outer loop
      vertex 23.9391 -9.12836 -5.1423
      vertex 16.1035 -22.7 6
      vertex 24.4343 -8.27066 -6
    endloop
  endfacet
  facet normal 0.866025 -0.5 0
    outer loop
      vertex 23.1371 -10.5175 -2.73616
      vertex 16.1035 -22.7 6
      vertex 23.4774 -9.9282 -4
    endloop
  endfacet
  facet normal 0.866025 -0.5 0
    outer loop
      vertex 22.9287 -10.8785 -1.38918
      vertex 16.1035 -22.7 6
      vertex 23.1371 -10.5175 -2.73616
    endloop
  endfacet
  facet normal 0.866025 -0.5 0
    outer loop
      vertex 22.8585 -11 5.07562e-015
      vertex 16.1035 -22.7 6
      vertex 22.9287 -10.8785 -1.38918
    endloop
  endfacet
  facet normal 0.866025 -0.5 0
    outer loop
      vertex 22.9287 -10.8785 1.38919
      vertex 16.1035 -22.7 6
      vertex 22.8585 -11 5.07562e-015
    endloop
  endfacet
  facet normal 0.866025 -0.5 0
    outer loop
      vertex 23.1371 -10.5175 2.73616
      vertex 16.1035 -22.7 6
      vertex 22.9287 -10.8785 1.38919
    endloop
  endfacet
  facet normal 0.866025 -0.5 0
    outer loop
      vertex 23.4774 -9.9282 4
      vertex 16.1035 -22.7 6
      vertex 23.1371 -10.5175 2.73616
    endloop
  endfacet
  facet normal 0.866025 -0.5 0
    outer loop
      vertex 23.9391 -9.12836 5.1423
      vertex 16.1035 -22.7 6
      vertex 23.4774 -9.9282 4
    endloop
  endfacet
  facet normal 0.866025 -0.5 0
    outer loop
      vertex 24.4343 -8.27066 6
      vertex 16.1035 -22.7 6
      vertex 23.9391 -9.12836 5.1423
    endloop
  endfacet
  facet normal 0 -1 0
    outer loop
      vertex 14.2 -22.7 6
      vertex 14.2 -22.7 -6
      vertex 16.1035 -22.7 -6
    endloop
  endfacet
  facet normal 0 -1 0
    outer loop
      vertex 16.1035 -22.7 6
      vertex 14.2 -22.7 6
      vertex 16.1035 -22.7 -6
    endloop
  endfacet
  facet normal -0.808946 -0.587883 0
    outer loop
      vertex 14.464 -13.164 6
      vertex 14.222 -12.831 6
      vertex 14.464 -13.164 -6
    endloop
  endfacet
  facet normal -0.808946 -0.587883 0
    outer loop
      vertex 14.464 -13.164 -6
      vertex 14.222 -12.831 6
      vertex 14.222 -12.831 -6
    endloop
  endfacet
  facet normal -0.882075 -0.471108 0
    outer loop
      vertex 14.511 -13.252 6
      vertex 14.464 -13.164 6
      vertex 14.511 -13.252 -6
    endloop
  endfacet
  facet normal -0.882075 -0.471108 0
    outer loop
      vertex 14.511 -13.252 -6
      vertex 14.464 -13.164 6
      vertex 14.464 -13.164 -6
    endloop
  endfacet
  facet normal -0.957276 -0.289177 0
    outer loop
      vertex 14.54 -13.348 6
      vertex 14.511 -13.252 6
      vertex 14.54 -13.348 -6
    endloop
  endfacet
  facet normal -0.957276 -0.289177 0
    outer loop
      vertex 14.54 -13.348 -6
      vertex 14.511 -13.252 6
      vertex 14.511 -13.252 -6
    endloop
  endfacet
  facet normal -1 0 0
    outer loop
      vertex 14.54 -13.348 6
      vertex 14.54 -13.348 -6
      vertex 14.54 -14.131 6
    endloop
  endfacet
  facet normal -1 0 0
    outer loop
      vertex 14.54 -14.131 6
      vertex 14.54 -13.348 -6
      vertex 14.54 -14.131 -6
    endloop
  endfacet
  facet normal -0.813733 -0.581238 0
    outer loop
      vertex 14.55 -14.145 6
      vertex 14.54 -14.131 6
      vertex 14.55 -14.145 -6
    endloop
  endfacet
  facet normal -0.813733 -0.581238 0
    outer loop
      vertex 14.55 -14.145 -6
      vertex 14.54 -14.131 6
      vertex 14.54 -14.131 -6
    endloop
  endfacet
  facet normal -1 0 0
    outer loop
      vertex 14.55 -14.145 6
      vertex 14.55 -14.145 -6
      vertex 14.55 -21.13 6
    endloop
  endfacet
  facet normal -1 0 0
    outer loop
      vertex 14.55 -21.13 6
      vertex 14.55 -14.145 -6
      vertex 14.55 -21.13 -6
    endloop
  endfacet
  facet normal -0.99535 0.0963242 0
    outer loop
      vertex 14.55 -21.13 6
      vertex 14.55 -21.13 -6
      vertex 14.526 -21.378 6
    endloop
  endfacet
  facet normal -0.99535 0.0963242 0
    outer loop
      vertex 14.526 -21.378 6
      vertex 14.55 -21.13 -6
      vertex 14.526 -21.378 -6
    endloop
  endfacet
  facet normal -0.956039 0.293239 0
    outer loop
      vertex 14.526 -21.378 6
      vertex 14.526 -21.378 -6
      vertex 14.453 -21.616 6
    endloop
  endfacet
  facet normal -0.956039 0.293239 0
    outer loop
      vertex 14.453 -21.616 6
      vertex 14.526 -21.378 -6
      vertex 14.453 -21.616 -6
    endloop
  endfacet
  facet normal -0.882908 0.469546 0
    outer loop
      vertex 14.453 -21.616 6
      vertex 14.453 -21.616 -6
      vertex 14.336 -21.836 6
    endloop
  endfacet
  facet normal -0.882908 0.469546 0
    outer loop
      vertex 14.336 -21.836 6
      vertex 14.453 -21.616 -6
      vertex 14.336 -21.836 -6
    endloop
  endfacet
  facet normal -0.808946 0.587883 0
    outer loop
      vertex 14.336 -21.836 6
      vertex 14.336 -21.836 -6
      vertex 14.2 -22.0231 6
    endloop
  endfacet
  facet normal -0.808946 0.587883 0
    outer loop
      vertex 14.2 -22.0231 6
      vertex 14.336 -21.836 -6
      vertex 14.2 -22.0231 -6
    endloop
  endfacet
  facet normal -1 0 0
    outer loop
      vertex 14.2 -22.7 -6
      vertex 14.2 -22.7 6
      vertex 14.2 -22.0231 -6
    endloop
  endfacet
  facet normal -1 0 0
    outer loop
      vertex 14.2 -22.0231 -6
      vertex 14.2 -22.7 6
      vertex 14.2 -22.0231 6
    endloop
  endfacet
endsolid OpenSCAD_Model
